ISO-10303-21;
HEADER;
FILE_DESCRIPTION(('FreeCAD Model'),'2;1');
FILE_NAME('Open CASCADE Shape Model','2026-08-20T19:26:57',(''),(''),
  'Open CASCADE STEP processor 7.8','FreeCAD','Unknown');
FILE_SCHEMA(('AUTOMOTIVE_DESIGN { 1 0 10303 214 1 1 1 1 }'));
ENDSEC;
DATA;
#1 = APPLICATION_PROTOCOL_DEFINITION('international standard',
  'automotive_design',2000,#2);
#2 = APPLICATION_CONTEXT(
  'core data for automotive mechanical design processes');
#3 = SHAPE_DEFINITION_REPRESENTATION(#4,#10);
#4 = PRODUCT_DEFINITION_SHAPE('','',#5);
#5 = PRODUCT_DEFINITION('design','',#6,#9);
#6 = PRODUCT_DEFINITION_FORMATION('','',#7);
#7 = PRODUCT('volume','volume','',(#8));
#8 = PRODUCT_CONTEXT('',#2,'mechanical');
#9 = PRODUCT_DEFINITION_CONTEXT('part definition',#2,'design');
#10 = ADVANCED_BREP_SHAPE_REPRESENTATION('',(#11,#15),#1737);
#11 = AXIS2_PLACEMENT_3D('',#12,#13,#14);
#12 = CARTESIAN_POINT('',(0.,0.,0.));
#13 = DIRECTION('',(0.,0.,1.));
#14 = DIRECTION('',(1.,0.,-0.));
#15 = MANIFOLD_SOLID_BREP('',#16);
#16 = CLOSED_SHELL('',(#17,#55,#99,#129,#173,#203,#249,#279,#323,#353,
    #399,#429,#459,#489,#535,#573,#617,#647,#691,#721,#767,#797,#841,
    #863,#907,#937,#981,#1011,#1057,#1087,#1131,#1161,#1207,#1237,#1267,
    #1311,#1341,#1385,#1415,#1461,#1491,#1535,#1565,#1611,#1633,#1685));
#17 = ADVANCED_FACE('',(#18),#50,.F.);
#18 = FACE_BOUND('',#19,.F.);
#19 = EDGE_LOOP('',(#20,#30,#37,#45));
#20 = ORIENTED_EDGE('',*,*,#21,.T.);
#21 = EDGE_CURVE('',#22,#24,#26,.T.);
#22 = VERTEX_POINT('',#23);
#23 = CARTESIAN_POINT('',(8.160139230995E-15,73.5,9.059574458398E-31));
#24 = VERTEX_POINT('',#25);
#25 = CARTESIAN_POINT('',(89.,73.5,0.));
#26 = LINE('',#27,#28);
#27 = CARTESIAN_POINT('',(0.,73.5,0.));
#28 = VECTOR('',#29,1.);
#29 = DIRECTION('',(1.,0.,0.));
#30 = ORIENTED_EDGE('',*,*,#31,.T.);
#31 = EDGE_CURVE('',#24,#32,#34,.T.);
#32 = VERTEX_POINT('',#33);
#33 = CARTESIAN_POINT('',(80.,82.,120.));
#34 = B_SPLINE_CURVE_WITH_KNOTS('',1,(#35,#36),.UNSPECIFIED.,.F.,.F.,(2,
    2),(0.,1.),.PIECEWISE_BEZIER_KNOTS.);
#35 = CARTESIAN_POINT('',(89.,73.5,0.));
#36 = CARTESIAN_POINT('',(80.,82.,120.));
#37 = ORIENTED_EDGE('',*,*,#38,.F.);
#38 = EDGE_CURVE('',#39,#32,#41,.T.);
#39 = VERTEX_POINT('',#40);
#40 = CARTESIAN_POINT('',(-4.218847493576E-15,82.,120.));
#41 = LINE('',#42,#43);
#42 = CARTESIAN_POINT('',(0.,82.,120.));
#43 = VECTOR('',#44,1.);
#44 = DIRECTION('',(1.,0.,0.));
#45 = ORIENTED_EDGE('',*,*,#46,.F.);
#46 = EDGE_CURVE('',#22,#39,#47,.T.);
#47 = B_SPLINE_CURVE_WITH_KNOTS('',1,(#48,#49),.UNSPECIFIED.,.F.,.F.,(2,
    2),(0.,1.),.PIECEWISE_BEZIER_KNOTS.);
#48 = CARTESIAN_POINT('',(0.,73.5,0.));
#49 = CARTESIAN_POINT('',(0.,82.,120.));
#50 = B_SPLINE_SURFACE_WITH_KNOTS('',1,1,(
    (#51,#52)
    ,(#53,#54)),.UNSPECIFIED.,.F.,.F.,.F.,(2,2),(2,2),(0.,89.),(0.,1.),
  .PIECEWISE_BEZIER_KNOTS.);
#51 = CARTESIAN_POINT('',(0.,73.5,0.));
#52 = CARTESIAN_POINT('',(0.,82.,120.));
#53 = CARTESIAN_POINT('',(89.,73.5,0.));
#54 = CARTESIAN_POINT('',(80.,82.,120.));
#55 = ADVANCED_FACE('',(#56),#82,.F.);
#56 = FACE_BOUND('',#57,.F.);
#57 = EDGE_LOOP('',(#58,#67,#74,#81));
#58 = ORIENTED_EDGE('',*,*,#59,.T.);
#59 = EDGE_CURVE('',#24,#60,#62,.T.);
#60 = VERTEX_POINT('',#61);
#61 = CARTESIAN_POINT('',(90.,74.5,0.));
#62 = CIRCLE('',#63,1.);
#63 = AXIS2_PLACEMENT_3D('',#64,#65,#66);
#64 = CARTESIAN_POINT('',(89.,74.5,0.));
#65 = DIRECTION('',(0.,0.,1.));
#66 = DIRECTION('',(1.,0.,0.));
#67 = ORIENTED_EDGE('',*,*,#68,.T.);
#68 = EDGE_CURVE('',#60,#69,#71,.T.);
#69 = VERTEX_POINT('',#70);
#70 = CARTESIAN_POINT('',(81.,83.,120.));
#71 = B_SPLINE_CURVE_WITH_KNOTS('',1,(#72,#73),.UNSPECIFIED.,.F.,.F.,(2,
    2),(0.,1.),.PIECEWISE_BEZIER_KNOTS.);
#72 = CARTESIAN_POINT('',(90.,74.5,0.));
#73 = CARTESIAN_POINT('',(81.,83.,120.));
#74 = ORIENTED_EDGE('',*,*,#75,.F.);
#75 = EDGE_CURVE('',#32,#69,#76,.T.);
#76 = CIRCLE('',#77,1.);
#77 = AXIS2_PLACEMENT_3D('',#78,#79,#80);
#78 = CARTESIAN_POINT('',(80.,83.,120.));
#79 = DIRECTION('',(0.,0.,1.));
#80 = DIRECTION('',(1.,0.,0.));
#81 = ORIENTED_EDGE('',*,*,#31,.F.);
#82 = B_SPLINE_SURFACE_WITH_KNOTS('',7,1,(
    (#83,#84)
    ,(#85,#86)
    ,(#87,#88)
    ,(#89,#90)
    ,(#91,#92)
    ,(#93,#94)
    ,(#95,#96)
    ,(#97,#98
    )),.UNSPECIFIED.,.F.,.F.,.F.,(8,8),(2,2),(4.712388980385,
    6.28318530718),(0.,1.),.PIECEWISE_BEZIER_KNOTS.);
#83 = CARTESIAN_POINT('',(89.,73.5,0.));
#84 = CARTESIAN_POINT('',(80.,82.,120.));
#85 = CARTESIAN_POINT('',(89.224399475256,73.5,0.));
#86 = CARTESIAN_POINT('',(80.224399475257,82.,120.));
#87 = CARTESIAN_POINT('',(89.448797864983,73.558748886552,0.));
#88 = CARTESIAN_POINT('',(80.448797864983,82.058748886552,120.));
#89 = CARTESIAN_POINT('',(89.654746940824,73.676237277798,0.));
#90 = CARTESIAN_POINT('',(80.654746940823,82.176237277797,
    119.99999999999));
#91 = CARTESIAN_POINT('',(89.823762722202,73.845253059177,0.));
#92 = CARTESIAN_POINT('',(80.823762722202,82.345253059177,120.));
#93 = CARTESIAN_POINT('',(89.941251113448,74.051202135016,0.));
#94 = CARTESIAN_POINT('',(80.941251113448,82.551202135017,
    119.99999999999));
#95 = CARTESIAN_POINT('',(90.,74.275600524744,0.));
#96 = CARTESIAN_POINT('',(81.,82.775600524744,120.));
#97 = CARTESIAN_POINT('',(90.,74.5,0.));
#98 = CARTESIAN_POINT('',(81.,83.,120.));
#99 = ADVANCED_FACE('',(#100),#124,.F.);
#100 = FACE_BOUND('',#101,.F.);
#101 = EDGE_LOOP('',(#102,#110,#117,#123));
#102 = ORIENTED_EDGE('',*,*,#103,.T.);
#103 = EDGE_CURVE('',#60,#104,#106,.T.);
#104 = VERTEX_POINT('',#105);
#105 = CARTESIAN_POINT('',(90.,75.5,0.));
#106 = LINE('',#107,#108);
#107 = CARTESIAN_POINT('',(90.,74.5,0.));
#108 = VECTOR('',#109,1.);
#109 = DIRECTION('',(0.,1.,0.));
#110 = ORIENTED_EDGE('',*,*,#111,.T.);
#111 = EDGE_CURVE('',#104,#112,#114,.T.);
#112 = VERTEX_POINT('',#113);
#113 = CARTESIAN_POINT('',(81.,84.5,120.));
#114 = B_SPLINE_CURVE_WITH_KNOTS('',1,(#115,#116),.UNSPECIFIED.,.F.,.F.,
  (2,2),(0.,1.),.PIECEWISE_BEZIER_KNOTS.);
#115 = CARTESIAN_POINT('',(90.,75.5,0.));
#116 = CARTESIAN_POINT('',(81.,84.5,120.));
#117 = ORIENTED_EDGE('',*,*,#118,.F.);
#118 = EDGE_CURVE('',#69,#112,#119,.T.);
#119 = LINE('',#120,#121);
#120 = CARTESIAN_POINT('',(81.,83.,120.));
#121 = VECTOR('',#122,1.);
#122 = DIRECTION('',(0.,1.,0.));
#123 = ORIENTED_EDGE('',*,*,#68,.F.);
#124 = B_SPLINE_SURFACE_WITH_KNOTS('',1,1,(
    (#125,#126)
    ,(#127,#128
  )),.UNSPECIFIED.,.F.,.F.,.F.,(2,2),(2,2),(0.,1.5),(0.,1.),
  .PIECEWISE_BEZIER_KNOTS.);
#125 = CARTESIAN_POINT('',(90.,74.5,0.));
#126 = CARTESIAN_POINT('',(81.,83.,120.));
#127 = CARTESIAN_POINT('',(90.,75.5,0.));
#128 = CARTESIAN_POINT('',(81.,84.5,120.));
#129 = ADVANCED_FACE('',(#130),#156,.F.);
#130 = FACE_BOUND('',#131,.F.);
#131 = EDGE_LOOP('',(#132,#141,#148,#155));
#132 = ORIENTED_EDGE('',*,*,#133,.F.);
#133 = EDGE_CURVE('',#134,#104,#136,.T.);
#134 = VERTEX_POINT('',#135);
#135 = CARTESIAN_POINT('',(90.5,76.,0.));
#136 = CIRCLE('',#137,0.5);
#137 = AXIS2_PLACEMENT_3D('',#138,#139,#140);
#138 = CARTESIAN_POINT('',(90.5,75.5,0.));
#139 = DIRECTION('',(0.,0.,1.));
#140 = DIRECTION('',(1.,0.,0.));
#141 = ORIENTED_EDGE('',*,*,#142,.T.);
#142 = EDGE_CURVE('',#134,#143,#145,.T.);
#143 = VERTEX_POINT('',#144);
#144 = CARTESIAN_POINT('',(81.5,85.,120.));
#145 = B_SPLINE_CURVE_WITH_KNOTS('',1,(#146,#147),.UNSPECIFIED.,.F.,.F.,
  (2,2),(0.,1.),.PIECEWISE_BEZIER_KNOTS.);
#146 = CARTESIAN_POINT('',(90.5,76.,0.));
#147 = CARTESIAN_POINT('',(81.5,85.,120.));
#148 = ORIENTED_EDGE('',*,*,#149,.T.);
#149 = EDGE_CURVE('',#143,#112,#150,.T.);
#150 = CIRCLE('',#151,0.5);
#151 = AXIS2_PLACEMENT_3D('',#152,#153,#154);
#152 = CARTESIAN_POINT('',(81.5,84.5,120.));
#153 = DIRECTION('',(0.,0.,1.));
#154 = DIRECTION('',(1.,0.,0.));
#155 = ORIENTED_EDGE('',*,*,#111,.F.);
#156 = B_SPLINE_SURFACE_WITH_KNOTS('',7,1,(
    (#157,#158)
    ,(#159,#160)
    ,(#161,#162)
    ,(#163,#164)
    ,(#165,#166)
    ,(#167,#168)
    ,(#169,#170)
    ,(#171,#172
    )),.UNSPECIFIED.,.F.,.F.,.F.,(8,8),(2,2),(3.14159265359,
    4.712388980385),(0.,1.),.PIECEWISE_BEZIER_KNOTS.);
#157 = CARTESIAN_POINT('',(90.,75.5,0.));
#158 = CARTESIAN_POINT('',(81.,84.5,120.));
#159 = CARTESIAN_POINT('',(90.,75.612199737628,0.));
#160 = CARTESIAN_POINT('',(81.,84.612199737628,120.));
#161 = CARTESIAN_POINT('',(90.029374443274,75.724398932491,0.));
#162 = CARTESIAN_POINT('',(81.029374443276,84.724398932491,120.));
#163 = CARTESIAN_POINT('',(90.088118638902,75.827373470413,0.));
#164 = CARTESIAN_POINT('',(81.088118638899,84.827373470412,120.));
#165 = CARTESIAN_POINT('',(90.172626529586,75.9118813611,0.));
#166 = CARTESIAN_POINT('',(81.172626529589,84.911881361101,120.));
#167 = CARTESIAN_POINT('',(90.27560106751,75.970625556725,0.));
#168 = CARTESIAN_POINT('',(81.275601067508,84.970625556724,120.));
#169 = CARTESIAN_POINT('',(90.387800262371,76.,0.));
#170 = CARTESIAN_POINT('',(81.387800262372,85.,120.));
#171 = CARTESIAN_POINT('',(90.5,76.,0.));
#172 = CARTESIAN_POINT('',(81.5,85.,120.));
#173 = ADVANCED_FACE('',(#174),#198,.F.);
#174 = FACE_BOUND('',#175,.F.);
#175 = EDGE_LOOP('',(#176,#184,#191,#197));
#176 = ORIENTED_EDGE('',*,*,#177,.T.);
#177 = EDGE_CURVE('',#134,#178,#180,.T.);
#178 = VERTEX_POINT('',#179);
#179 = CARTESIAN_POINT('',(102.,76.,0.));
#180 = LINE('',#181,#182);
#181 = CARTESIAN_POINT('',(90.5,76.,0.));
#182 = VECTOR('',#183,1.);
#183 = DIRECTION('',(1.,0.,0.));
#184 = ORIENTED_EDGE('',*,*,#185,.T.);
#185 = EDGE_CURVE('',#178,#186,#188,.T.);
#186 = VERTEX_POINT('',#187);
#187 = CARTESIAN_POINT('',(109.,85.,120.));
#188 = B_SPLINE_CURVE_WITH_KNOTS('',1,(#189,#190),.UNSPECIFIED.,.F.,.F.,
  (2,2),(0.,1.),.PIECEWISE_BEZIER_KNOTS.);
#189 = CARTESIAN_POINT('',(102.,76.,0.));
#190 = CARTESIAN_POINT('',(109.,85.,120.));
#191 = ORIENTED_EDGE('',*,*,#192,.F.);
#192 = EDGE_CURVE('',#143,#186,#193,.T.);
#193 = LINE('',#194,#195);
#194 = CARTESIAN_POINT('',(81.5,85.,120.));
#195 = VECTOR('',#196,1.);
#196 = DIRECTION('',(1.,0.,0.));
#197 = ORIENTED_EDGE('',*,*,#142,.F.);
#198 = B_SPLINE_SURFACE_WITH_KNOTS('',1,1,(
    (#199,#200)
    ,(#201,#202
    )),.UNSPECIFIED.,.F.,.F.,.F.,(2,2),(2,2),(0.,27.5),(0.,1.),
  .PIECEWISE_BEZIER_KNOTS.);
#199 = CARTESIAN_POINT('',(90.5,76.,0.));
#200 = CARTESIAN_POINT('',(81.5,85.,120.));
#201 = CARTESIAN_POINT('',(102.,76.,0.));
#202 = CARTESIAN_POINT('',(109.,85.,120.));
#203 = ADVANCED_FACE('',(#204),#230,.F.);
#204 = FACE_BOUND('',#205,.F.);
#205 = EDGE_LOOP('',(#206,#215,#222,#229));
#206 = ORIENTED_EDGE('',*,*,#207,.F.);
#207 = EDGE_CURVE('',#208,#178,#210,.T.);
#208 = VERTEX_POINT('',#209);
#209 = CARTESIAN_POINT('',(119.,59.,0.));
#210 = CIRCLE('',#211,17.);
#211 = AXIS2_PLACEMENT_3D('',#212,#213,#214);
#212 = CARTESIAN_POINT('',(102.,59.,0.));
#213 = DIRECTION('',(0.,0.,1.));
#214 = DIRECTION('',(1.,0.,0.));
#215 = ORIENTED_EDGE('',*,*,#216,.T.);
#216 = EDGE_CURVE('',#208,#217,#219,.T.);
#217 = VERTEX_POINT('',#218);
#218 = CARTESIAN_POINT('',(128.,66.,120.));
#219 = B_SPLINE_CURVE_WITH_KNOTS('',1,(#220,#221),.UNSPECIFIED.,.F.,.F.,
  (2,2),(0.,1.),.PIECEWISE_BEZIER_KNOTS.);
#220 = CARTESIAN_POINT('',(119.,59.,0.));
#221 = CARTESIAN_POINT('',(128.,66.,120.));
#222 = ORIENTED_EDGE('',*,*,#223,.T.);
#223 = EDGE_CURVE('',#217,#186,#224,.T.);
#224 = CIRCLE('',#225,19.);
#225 = AXIS2_PLACEMENT_3D('',#226,#227,#228);
#226 = CARTESIAN_POINT('',(109.,66.,120.));
#227 = DIRECTION('',(0.,0.,1.));
#228 = DIRECTION('',(1.,0.,0.));
#229 = ORIENTED_EDGE('',*,*,#185,.F.);
#230 = B_SPLINE_SURFACE_WITH_KNOTS('',8,1,(
    (#231,#232)
    ,(#233,#234)
    ,(#235,#236)
    ,(#237,#238)
    ,(#239,#240)
    ,(#241,#242)
    ,(#243,#244)
    ,(#245,#246)
    ,(#247,#248
    )),.UNSPECIFIED.,.F.,.F.,.F.,(9,9),(2,2),(4.712388980385,
    6.28318530718),(0.,1.),.PIECEWISE_BEZIER_KNOTS.);
#231 = CARTESIAN_POINT('',(102.,76.,0.));
#232 = CARTESIAN_POINT('',(109.,85.,120.));
#233 = CARTESIAN_POINT('',(105.33794219443,75.999999999999,0.));
#234 = CARTESIAN_POINT('',(112.73064127613,84.999999999999,
    119.99999999999));
#235 = CARTESIAN_POINT('',(108.67588543957,75.250966587662,0.));
#236 = CARTESIAN_POINT('',(116.46128372658,84.16284500974,120.));
#237 = CARTESIAN_POINT('',(111.81772498368,73.75290711981,0.));
#238 = CARTESIAN_POINT('',(119.97275145235,82.488543251551,
    119.99999999999));
#239 = CARTESIAN_POINT('',(114.56739884826,71.567398848263,0.));
#240 = CARTESIAN_POINT('',(123.04591635982,80.045916359824,120.));
#241 = CARTESIAN_POINT('',(116.7529071198,68.817724983693,0.));
#242 = CARTESIAN_POINT('',(125.48854325155,76.972751452362,
    119.99999999999));
#243 = CARTESIAN_POINT('',(118.25096658766,65.675885439573,0.));
#244 = CARTESIAN_POINT('',(127.16284500974,73.461283726582,120.));
#245 = CARTESIAN_POINT('',(118.99999999999,62.337942194439,0.));
#246 = CARTESIAN_POINT('',(127.99999999999,69.730641276137,
    119.99999999999));
#247 = CARTESIAN_POINT('',(119.,59.,0.));
#248 = CARTESIAN_POINT('',(128.,66.,120.));
#249 = ADVANCED_FACE('',(#250),#274,.F.);
#250 = FACE_BOUND('',#251,.F.);
#251 = EDGE_LOOP('',(#252,#260,#267,#273));
#252 = ORIENTED_EDGE('',*,*,#253,.T.);
#253 = EDGE_CURVE('',#208,#254,#256,.T.);
#254 = VERTEX_POINT('',#255);
#255 = CARTESIAN_POINT('',(119.,47.5,0.));
#256 = LINE('',#257,#258);
#257 = CARTESIAN_POINT('',(119.,59.,0.));
#258 = VECTOR('',#259,1.);
#259 = DIRECTION('',(0.,-1.,0.));
#260 = ORIENTED_EDGE('',*,*,#261,.T.);
#261 = EDGE_CURVE('',#254,#262,#264,.T.);
#262 = VERTEX_POINT('',#263);
#263 = CARTESIAN_POINT('',(128.,40.5,120.));
#264 = B_SPLINE_CURVE_WITH_KNOTS('',1,(#265,#266),.UNSPECIFIED.,.F.,.F.,
  (2,2),(0.,1.),.PIECEWISE_BEZIER_KNOTS.);
#265 = CARTESIAN_POINT('',(119.,47.5,0.));
#266 = CARTESIAN_POINT('',(128.,40.5,120.));
#267 = ORIENTED_EDGE('',*,*,#268,.F.);
#268 = EDGE_CURVE('',#217,#262,#269,.T.);
#269 = LINE('',#270,#271);
#270 = CARTESIAN_POINT('',(128.,66.,120.));
#271 = VECTOR('',#272,1.);
#272 = DIRECTION('',(0.,-1.,0.));
#273 = ORIENTED_EDGE('',*,*,#216,.F.);
#274 = B_SPLINE_SURFACE_WITH_KNOTS('',1,1,(
    (#275,#276)
    ,(#277,#278
    )),.UNSPECIFIED.,.F.,.F.,.F.,(2,2),(2,2),(0.,25.5),(0.,1.),
  .PIECEWISE_BEZIER_KNOTS.);
#275 = CARTESIAN_POINT('',(119.,59.,0.));
#276 = CARTESIAN_POINT('',(128.,66.,120.));
#277 = CARTESIAN_POINT('',(119.,47.5,0.));
#278 = CARTESIAN_POINT('',(128.,40.5,120.));
#279 = ADVANCED_FACE('',(#280),#306,.F.);
#280 = FACE_BOUND('',#281,.F.);
#281 = EDGE_LOOP('',(#282,#291,#298,#305));
#282 = ORIENTED_EDGE('',*,*,#283,.F.);
#283 = EDGE_CURVE('',#284,#254,#286,.T.);
#284 = VERTEX_POINT('',#285);
#285 = CARTESIAN_POINT('',(118.5,47.,0.));
#286 = CIRCLE('',#287,0.5);
#287 = AXIS2_PLACEMENT_3D('',#288,#289,#290);
#288 = CARTESIAN_POINT('',(118.5,47.5,0.));
#289 = DIRECTION('',(0.,0.,1.));
#290 = DIRECTION('',(1.,0.,0.));
#291 = ORIENTED_EDGE('',*,*,#292,.T.);
#292 = EDGE_CURVE('',#284,#293,#295,.T.);
#293 = VERTEX_POINT('',#294);
#294 = CARTESIAN_POINT('',(127.5,40.,120.));
#295 = B_SPLINE_CURVE_WITH_KNOTS('',1,(#296,#297),.UNSPECIFIED.,.F.,.F.,
  (2,2),(0.,1.),.PIECEWISE_BEZIER_KNOTS.);
#296 = CARTESIAN_POINT('',(118.5,47.,0.));
#297 = CARTESIAN_POINT('',(127.5,40.,120.));
#298 = ORIENTED_EDGE('',*,*,#299,.T.);
#299 = EDGE_CURVE('',#293,#262,#300,.T.);
#300 = CIRCLE('',#301,0.5);
#301 = AXIS2_PLACEMENT_3D('',#302,#303,#304);
#302 = CARTESIAN_POINT('',(127.5,40.5,120.));
#303 = DIRECTION('',(0.,0.,1.));
#304 = DIRECTION('',(1.,0.,0.));
#305 = ORIENTED_EDGE('',*,*,#261,.F.);
#306 = B_SPLINE_SURFACE_WITH_KNOTS('',7,1,(
    (#307,#308)
    ,(#309,#310)
    ,(#311,#312)
    ,(#313,#314)
    ,(#315,#316)
    ,(#317,#318)
    ,(#319,#320)
    ,(#321,#322
    )),.UNSPECIFIED.,.F.,.F.,.F.,(8,8),(2,2),(0.,1.570796326795),(0.,1.)
  ,.PIECEWISE_BEZIER_KNOTS.);
#307 = CARTESIAN_POINT('',(119.,47.5,0.));
#308 = CARTESIAN_POINT('',(128.,40.5,120.));
#309 = CARTESIAN_POINT('',(119.,47.387800262372,0.));
#310 = CARTESIAN_POINT('',(128.,40.387800262372,120.));
#311 = CARTESIAN_POINT('',(118.97062555672,47.275601067507,0.));
#312 = CARTESIAN_POINT('',(127.97062555672,40.275601067507,
    119.99999999999));
#313 = CARTESIAN_POINT('',(118.9118813611,47.17262652959,0.));
#314 = CARTESIAN_POINT('',(127.9118813611,40.17262652959,120.));
#315 = CARTESIAN_POINT('',(118.8273734704,47.088118638897,0.));
#316 = CARTESIAN_POINT('',(127.82737347041,40.088118638897,
    119.99999999999));
#317 = CARTESIAN_POINT('',(118.72439893249,47.029374443277,0.));
#318 = CARTESIAN_POINT('',(127.72439893249,40.029374443277,120.));
#319 = CARTESIAN_POINT('',(118.61219973762,47.,0.));
#320 = CARTESIAN_POINT('',(127.61219973762,40.,120.));
#321 = CARTESIAN_POINT('',(118.5,47.,0.));
#322 = CARTESIAN_POINT('',(127.5,40.,120.));
#323 = ADVANCED_FACE('',(#324),#348,.F.);
#324 = FACE_BOUND('',#325,.F.);
#325 = EDGE_LOOP('',(#326,#334,#341,#347));
#326 = ORIENTED_EDGE('',*,*,#327,.T.);
#327 = EDGE_CURVE('',#284,#328,#330,.T.);
#328 = VERTEX_POINT('',#329);
#329 = CARTESIAN_POINT('',(115.,47.,0.));
#330 = LINE('',#331,#332);
#331 = CARTESIAN_POINT('',(118.5,47.,0.));
#332 = VECTOR('',#333,1.);
#333 = DIRECTION('',(-1.,0.,0.));
#334 = ORIENTED_EDGE('',*,*,#335,.T.);
#335 = EDGE_CURVE('',#328,#336,#338,.T.);
#336 = VERTEX_POINT('',#337);
#337 = CARTESIAN_POINT('',(121.,40.,120.));
#338 = B_SPLINE_CURVE_WITH_KNOTS('',1,(#339,#340),.UNSPECIFIED.,.F.,.F.,
  (2,2),(0.,1.),.PIECEWISE_BEZIER_KNOTS.);
#339 = CARTESIAN_POINT('',(115.,47.,0.));
#340 = CARTESIAN_POINT('',(121.,40.,120.));
#341 = ORIENTED_EDGE('',*,*,#342,.F.);
#342 = EDGE_CURVE('',#293,#336,#343,.T.);
#343 = LINE('',#344,#345);
#344 = CARTESIAN_POINT('',(127.5,40.,120.));
#345 = VECTOR('',#346,1.);
#346 = DIRECTION('',(-1.,0.,0.));
#347 = ORIENTED_EDGE('',*,*,#292,.F.);
#348 = B_SPLINE_SURFACE_WITH_KNOTS('',1,1,(
    (#349,#350)
    ,(#351,#352
  )),.UNSPECIFIED.,.F.,.F.,.F.,(2,2),(2,2),(0.,6.5),(0.,1.),
  .PIECEWISE_BEZIER_KNOTS.);
#349 = CARTESIAN_POINT('',(118.5,47.,0.));
#350 = CARTESIAN_POINT('',(127.5,40.,120.));
#351 = CARTESIAN_POINT('',(115.,47.,0.));
#352 = CARTESIAN_POINT('',(121.,40.,120.));
#353 = ADVANCED_FACE('',(#354),#380,.F.);
#354 = FACE_BOUND('',#355,.F.);
#355 = EDGE_LOOP('',(#356,#365,#372,#379));
#356 = ORIENTED_EDGE('',*,*,#357,.T.);
#357 = EDGE_CURVE('',#328,#358,#360,.T.);
#358 = VERTEX_POINT('',#359);
#359 = CARTESIAN_POINT('',(102.,34.,0.));
#360 = CIRCLE('',#361,13.);
#361 = AXIS2_PLACEMENT_3D('',#362,#363,#364);
#362 = CARTESIAN_POINT('',(115.,34.,0.));
#363 = DIRECTION('',(0.,0.,1.));
#364 = DIRECTION('',(1.,0.,0.));
#365 = ORIENTED_EDGE('',*,*,#366,.T.);
#366 = EDGE_CURVE('',#358,#367,#369,.T.);
#367 = VERTEX_POINT('',#368);
#368 = CARTESIAN_POINT('',(110.,29.,120.));
#369 = B_SPLINE_CURVE_WITH_KNOTS('',1,(#370,#371),.UNSPECIFIED.,.F.,.F.,
  (2,2),(0.,1.),.PIECEWISE_BEZIER_KNOTS.);
#370 = CARTESIAN_POINT('',(102.,34.,0.));
#371 = CARTESIAN_POINT('',(110.,29.,120.));
#372 = ORIENTED_EDGE('',*,*,#373,.F.);
#373 = EDGE_CURVE('',#336,#367,#374,.T.);
#374 = CIRCLE('',#375,11.);
#375 = AXIS2_PLACEMENT_3D('',#376,#377,#378);
#376 = CARTESIAN_POINT('',(121.,29.,120.));
#377 = DIRECTION('',(0.,0.,1.));
#378 = DIRECTION('',(1.,0.,0.));
#379 = ORIENTED_EDGE('',*,*,#335,.F.);
#380 = B_SPLINE_SURFACE_WITH_KNOTS('',8,1,(
    (#381,#382)
    ,(#383,#384)
    ,(#385,#386)
    ,(#387,#388)
    ,(#389,#390)
    ,(#391,#392)
    ,(#393,#394)
    ,(#395,#396)
    ,(#397,#398
    )),.UNSPECIFIED.,.F.,.F.,.F.,(9,9),(2,2),(1.570796326795,
    3.14159265359),(0.,1.),.PIECEWISE_BEZIER_KNOTS.);
#381 = CARTESIAN_POINT('',(115.,47.,0.));
#382 = CARTESIAN_POINT('',(121.,40.,120.));
#383 = CARTESIAN_POINT('',(112.44745596896,47.000000000001,0.));
#384 = CARTESIAN_POINT('',(118.84015505065,40.,120.));
#385 = CARTESIAN_POINT('',(109.89491113443,46.427209743502,0.));
#386 = CARTESIAN_POINT('',(116.68030942145,39.515331321426,
    119.99999999999));
#387 = CARTESIAN_POINT('',(107.49232795365,45.281634856333,0.));
#388 = CARTESIAN_POINT('',(114.64735442231,38.545998724587,120.));
#389 = CARTESIAN_POINT('',(105.38963617484,43.610363825134,0.));
#390 = CARTESIAN_POINT('',(112.86815368641,37.131846313578,
    119.99999999999));
#391 = CARTESIAN_POINT('',(103.71836514368,41.507672046359,0.));
#392 = CARTESIAN_POINT('',(111.45400127541,35.352645577686,120.));
#393 = CARTESIAN_POINT('',(102.57279025649,39.105088865553,0.));
#394 = CARTESIAN_POINT('',(110.48466867857,33.319690578546,
    119.99999999999));
#395 = CARTESIAN_POINT('',(102.,36.552544031042,0.));
#396 = CARTESIAN_POINT('',(110.,31.159844949343,120.));
#397 = CARTESIAN_POINT('',(102.,34.,0.));
#398 = CARTESIAN_POINT('',(110.,29.,120.));
#399 = ADVANCED_FACE('',(#400),#424,.F.);
#400 = FACE_BOUND('',#401,.F.);
#401 = EDGE_LOOP('',(#402,#410,#417,#423));
#402 = ORIENTED_EDGE('',*,*,#403,.T.);
#403 = EDGE_CURVE('',#358,#404,#406,.T.);
#404 = VERTEX_POINT('',#405);
#405 = CARTESIAN_POINT('',(102.,0.,0.));
#406 = LINE('',#407,#408);
#407 = CARTESIAN_POINT('',(102.,34.,0.));
#408 = VECTOR('',#409,1.);
#409 = DIRECTION('',(0.,-1.,0.));
#410 = ORIENTED_EDGE('',*,*,#411,.T.);
#411 = EDGE_CURVE('',#404,#412,#414,.T.);
#412 = VERTEX_POINT('',#413);
#413 = CARTESIAN_POINT('',(110.,0.,120.));
#414 = B_SPLINE_CURVE_WITH_KNOTS('',1,(#415,#416),.UNSPECIFIED.,.F.,.F.,
  (2,2),(0.,1.),.PIECEWISE_BEZIER_KNOTS.);
#415 = CARTESIAN_POINT('',(102.,0.,0.));
#416 = CARTESIAN_POINT('',(110.,0.,120.));
#417 = ORIENTED_EDGE('',*,*,#418,.F.);
#418 = EDGE_CURVE('',#367,#412,#419,.T.);
#419 = LINE('',#420,#421);
#420 = CARTESIAN_POINT('',(110.,29.,120.));
#421 = VECTOR('',#422,1.);
#422 = DIRECTION('',(0.,-1.,0.));
#423 = ORIENTED_EDGE('',*,*,#366,.F.);
#424 = B_SPLINE_SURFACE_WITH_KNOTS('',1,1,(
    (#425,#426)
    ,(#427,#428
  )),.UNSPECIFIED.,.F.,.F.,.F.,(2,2),(2,2),(0.,34.),(0.,1.),
  .PIECEWISE_BEZIER_KNOTS.);
#425 = CARTESIAN_POINT('',(102.,34.,0.));
#426 = CARTESIAN_POINT('',(110.,29.,120.));
#427 = CARTESIAN_POINT('',(102.,0.,0.));
#428 = CARTESIAN_POINT('',(110.,0.,120.));
#429 = ADVANCED_FACE('',(#430),#454,.T.);
#430 = FACE_BOUND('',#431,.T.);
#431 = EDGE_LOOP('',(#432,#440,#447,#453));
#432 = ORIENTED_EDGE('',*,*,#433,.T.);
#433 = EDGE_CURVE('',#22,#434,#436,.T.);
#434 = VERTEX_POINT('',#435);
#435 = CARTESIAN_POINT('',(-89.,73.5,-1.976196983833E-14));
#436 = LINE('',#437,#438);
#437 = CARTESIAN_POINT('',(1.632027846199E-14,73.5,1.81191489168E-30));
#438 = VECTOR('',#439,1.);
#439 = DIRECTION('',(-1.,2.22044604925E-16,-2.22044604925E-16));
#440 = ORIENTED_EDGE('',*,*,#441,.T.);
#441 = EDGE_CURVE('',#434,#442,#444,.T.);
#442 = VERTEX_POINT('',#443);
#443 = CARTESIAN_POINT('',(-80.,82.,120.));
#444 = B_SPLINE_CURVE_WITH_KNOTS('',1,(#445,#446),.UNSPECIFIED.,.F.,.F.,
  (2,2),(0.,1.),.PIECEWISE_BEZIER_KNOTS.);
#445 = CARTESIAN_POINT('',(-89.,73.5,-1.976196983833E-14));
#446 = CARTESIAN_POINT('',(-80.,82.,120.));
#447 = ORIENTED_EDGE('',*,*,#448,.F.);
#448 = EDGE_CURVE('',#39,#442,#449,.T.);
#449 = LINE('',#450,#451);
#450 = CARTESIAN_POINT('',(-8.437694987151E-15,82.,120.));
#451 = VECTOR('',#452,1.);
#452 = DIRECTION('',(-1.,2.22044604925E-16,-2.22044604925E-16));
#453 = ORIENTED_EDGE('',*,*,#46,.F.);
#454 = B_SPLINE_SURFACE_WITH_KNOTS('',1,1,(
    (#455,#456)
    ,(#457,#458
  )),.UNSPECIFIED.,.F.,.F.,.F.,(2,2),(2,2),(0.,89.),(0.,1.),
  .PIECEWISE_BEZIER_KNOTS.);
#455 = CARTESIAN_POINT('',(1.632027846199E-14,73.5,1.81191489168E-30));
#456 = CARTESIAN_POINT('',(-8.437694987151E-15,82.,120.));
#457 = CARTESIAN_POINT('',(-89.,73.5,-1.976196983833E-14));
#458 = CARTESIAN_POINT('',(-80.,82.,120.));
#459 = ADVANCED_FACE('',(#460),#484,.T.);
#460 = FACE_BOUND('',#461,.T.);
#461 = EDGE_LOOP('',(#462,#470,#471,#479));
#462 = ORIENTED_EDGE('',*,*,#463,.T.);
#463 = EDGE_CURVE('',#464,#404,#466,.T.);
#464 = VERTEX_POINT('',#465);
#465 = CARTESIAN_POINT('',(102.,-34.,0.));
#466 = LINE('',#467,#468);
#467 = CARTESIAN_POINT('',(102.,-34.,0.));
#468 = VECTOR('',#469,1.);
#469 = DIRECTION('',(0.,1.,0.));
#470 = ORIENTED_EDGE('',*,*,#411,.T.);
#471 = ORIENTED_EDGE('',*,*,#472,.F.);
#472 = EDGE_CURVE('',#473,#412,#475,.T.);
#473 = VERTEX_POINT('',#474);
#474 = CARTESIAN_POINT('',(110.,-29.,120.));
#475 = LINE('',#476,#477);
#476 = CARTESIAN_POINT('',(110.,-29.,120.));
#477 = VECTOR('',#478,1.);
#478 = DIRECTION('',(0.,1.,0.));
#479 = ORIENTED_EDGE('',*,*,#480,.F.);
#480 = EDGE_CURVE('',#464,#473,#481,.T.);
#481 = B_SPLINE_CURVE_WITH_KNOTS('',1,(#482,#483),.UNSPECIFIED.,.F.,.F.,
  (2,2),(0.,1.),.PIECEWISE_BEZIER_KNOTS.);
#482 = CARTESIAN_POINT('',(102.,-34.,0.));
#483 = CARTESIAN_POINT('',(110.,-29.,120.));
#484 = B_SPLINE_SURFACE_WITH_KNOTS('',1,1,(
    (#485,#486)
    ,(#487,#488
  )),.UNSPECIFIED.,.F.,.F.,.F.,(2,2),(2,2),(0.,34.),(0.,1.),
  .PIECEWISE_BEZIER_KNOTS.);
#485 = CARTESIAN_POINT('',(102.,-34.,0.));
#486 = CARTESIAN_POINT('',(110.,-29.,120.));
#487 = CARTESIAN_POINT('',(102.,0.,0.));
#488 = CARTESIAN_POINT('',(110.,0.,120.));
#489 = ADVANCED_FACE('',(#490),#516,.T.);
#490 = FACE_BOUND('',#491,.T.);
#491 = EDGE_LOOP('',(#492,#501,#502,#511));
#492 = ORIENTED_EDGE('',*,*,#493,.T.);
#493 = EDGE_CURVE('',#494,#464,#496,.T.);
#494 = VERTEX_POINT('',#495);
#495 = CARTESIAN_POINT('',(115.,-47.,0.));
#496 = CIRCLE('',#497,13.);
#497 = AXIS2_PLACEMENT_3D('',#498,#499,#500);
#498 = CARTESIAN_POINT('',(115.,-34.,0.));
#499 = DIRECTION('',(0.,0.,-1.));
#500 = DIRECTION('',(1.,0.,0.));
#501 = ORIENTED_EDGE('',*,*,#480,.T.);
#502 = ORIENTED_EDGE('',*,*,#503,.F.);
#503 = EDGE_CURVE('',#504,#473,#506,.T.);
#504 = VERTEX_POINT('',#505);
#505 = CARTESIAN_POINT('',(121.,-40.,120.));
#506 = CIRCLE('',#507,11.);
#507 = AXIS2_PLACEMENT_3D('',#508,#509,#510);
#508 = CARTESIAN_POINT('',(121.,-29.,120.));
#509 = DIRECTION('',(0.,0.,-1.));
#510 = DIRECTION('',(1.,0.,0.));
#511 = ORIENTED_EDGE('',*,*,#512,.F.);
#512 = EDGE_CURVE('',#494,#504,#513,.T.);
#513 = B_SPLINE_CURVE_WITH_KNOTS('',1,(#514,#515),.UNSPECIFIED.,.F.,.F.,
  (2,2),(0.,1.),.PIECEWISE_BEZIER_KNOTS.);
#514 = CARTESIAN_POINT('',(115.,-47.,0.));
#515 = CARTESIAN_POINT('',(121.,-40.,120.));
#516 = B_SPLINE_SURFACE_WITH_KNOTS('',8,1,(
    (#517,#518)
    ,(#519,#520)
    ,(#521,#522)
    ,(#523,#524)
    ,(#525,#526)
    ,(#527,#528)
    ,(#529,#530)
    ,(#531,#532)
    ,(#533,#534
    )),.UNSPECIFIED.,.F.,.F.,.F.,(9,9),(2,2),(1.570796326795,
    3.14159265359),(0.,1.),.PIECEWISE_BEZIER_KNOTS.);
#517 = CARTESIAN_POINT('',(115.,-47.,0.));
#518 = CARTESIAN_POINT('',(121.,-40.,120.));
#519 = CARTESIAN_POINT('',(112.44745596896,-47.,0.));
#520 = CARTESIAN_POINT('',(118.84015505065,-40.,120.));
#521 = CARTESIAN_POINT('',(109.89491113443,-46.4272097435,0.));
#522 = CARTESIAN_POINT('',(116.68030942145,-39.51533132142,
    119.99999999999));
#523 = CARTESIAN_POINT('',(107.49232795365,-45.28163485633,0.));
#524 = CARTESIAN_POINT('',(114.64735442231,-38.54599872458,120.));
#525 = CARTESIAN_POINT('',(105.38963617484,-43.61036382513,0.));
#526 = CARTESIAN_POINT('',(112.86815368641,-37.13184631357,
    119.99999999999));
#527 = CARTESIAN_POINT('',(103.71836514368,-41.50767204635,0.));
#528 = CARTESIAN_POINT('',(111.45400127541,-35.35264557768,120.));
#529 = CARTESIAN_POINT('',(102.57279025649,-39.10508886555,0.));
#530 = CARTESIAN_POINT('',(110.48466867857,-33.31969057854,
    119.99999999999));
#531 = CARTESIAN_POINT('',(102.,-36.55254403104,0.));
#532 = CARTESIAN_POINT('',(110.,-31.15984494934,120.));
#533 = CARTESIAN_POINT('',(102.,-34.,0.));
#534 = CARTESIAN_POINT('',(110.,-29.,120.));
#535 = ADVANCED_FACE('',(#536),#568,.T.);
#536 = FACE_BOUND('',#537,.T.);
#537 = EDGE_LOOP('',(#538,#548,#555,#563));
#538 = ORIENTED_EDGE('',*,*,#539,.T.);
#539 = EDGE_CURVE('',#540,#542,#544,.T.);
#540 = VERTEX_POINT('',#541);
#541 = CARTESIAN_POINT('',(8.160139230995E-15,-73.5,9.059574458398E-31)
  );
#542 = VERTEX_POINT('',#543);
#543 = CARTESIAN_POINT('',(89.,-73.5,0.));
#544 = LINE('',#545,#546);
#545 = CARTESIAN_POINT('',(0.,-73.5,0.));
#546 = VECTOR('',#547,1.);
#547 = DIRECTION('',(1.,0.,0.));
#548 = ORIENTED_EDGE('',*,*,#549,.T.);
#549 = EDGE_CURVE('',#542,#550,#552,.T.);
#550 = VERTEX_POINT('',#551);
#551 = CARTESIAN_POINT('',(80.,-82.,120.));
#552 = B_SPLINE_CURVE_WITH_KNOTS('',1,(#553,#554),.UNSPECIFIED.,.F.,.F.,
  (2,2),(0.,1.),.PIECEWISE_BEZIER_KNOTS.);
#553 = CARTESIAN_POINT('',(89.,-73.5,0.));
#554 = CARTESIAN_POINT('',(80.,-82.,120.));
#555 = ORIENTED_EDGE('',*,*,#556,.F.);
#556 = EDGE_CURVE('',#557,#550,#559,.T.);
#557 = VERTEX_POINT('',#558);
#558 = CARTESIAN_POINT('',(-4.218847493576E-15,-82.,120.));
#559 = LINE('',#560,#561);
#560 = CARTESIAN_POINT('',(0.,-82.,120.));
#561 = VECTOR('',#562,1.);
#562 = DIRECTION('',(1.,0.,0.));
#563 = ORIENTED_EDGE('',*,*,#564,.F.);
#564 = EDGE_CURVE('',#540,#557,#565,.T.);
#565 = B_SPLINE_CURVE_WITH_KNOTS('',1,(#566,#567),.UNSPECIFIED.,.F.,.F.,
  (2,2),(0.,1.),.PIECEWISE_BEZIER_KNOTS.);
#566 = CARTESIAN_POINT('',(0.,-73.5,0.));
#567 = CARTESIAN_POINT('',(0.,-82.,120.));
#568 = B_SPLINE_SURFACE_WITH_KNOTS('',1,1,(
    (#569,#570)
    ,(#571,#572
  )),.UNSPECIFIED.,.F.,.F.,.F.,(2,2),(2,2),(0.,89.),(0.,1.),
  .PIECEWISE_BEZIER_KNOTS.);
#569 = CARTESIAN_POINT('',(0.,-73.5,0.));
#570 = CARTESIAN_POINT('',(0.,-82.,120.));
#571 = CARTESIAN_POINT('',(89.,-73.5,0.));
#572 = CARTESIAN_POINT('',(80.,-82.,120.));
#573 = ADVANCED_FACE('',(#574),#600,.T.);
#574 = FACE_BOUND('',#575,.T.);
#575 = EDGE_LOOP('',(#576,#585,#592,#599));
#576 = ORIENTED_EDGE('',*,*,#577,.T.);
#577 = EDGE_CURVE('',#542,#578,#580,.T.);
#578 = VERTEX_POINT('',#579);
#579 = CARTESIAN_POINT('',(90.,-74.5,0.));
#580 = CIRCLE('',#581,1.);
#581 = AXIS2_PLACEMENT_3D('',#582,#583,#584);
#582 = CARTESIAN_POINT('',(89.,-74.5,0.));
#583 = DIRECTION('',(0.,0.,-1.));
#584 = DIRECTION('',(1.,0.,0.));
#585 = ORIENTED_EDGE('',*,*,#586,.T.);
#586 = EDGE_CURVE('',#578,#587,#589,.T.);
#587 = VERTEX_POINT('',#588);
#588 = CARTESIAN_POINT('',(81.,-83.,120.));
#589 = B_SPLINE_CURVE_WITH_KNOTS('',1,(#590,#591),.UNSPECIFIED.,.F.,.F.,
  (2,2),(0.,1.),.PIECEWISE_BEZIER_KNOTS.);
#590 = CARTESIAN_POINT('',(90.,-74.5,0.));
#591 = CARTESIAN_POINT('',(81.,-83.,120.));
#592 = ORIENTED_EDGE('',*,*,#593,.F.);
#593 = EDGE_CURVE('',#550,#587,#594,.T.);
#594 = CIRCLE('',#595,1.);
#595 = AXIS2_PLACEMENT_3D('',#596,#597,#598);
#596 = CARTESIAN_POINT('',(80.,-83.,120.));
#597 = DIRECTION('',(0.,0.,-1.));
#598 = DIRECTION('',(1.,0.,0.));
#599 = ORIENTED_EDGE('',*,*,#549,.F.);
#600 = B_SPLINE_SURFACE_WITH_KNOTS('',7,1,(
    (#601,#602)
    ,(#603,#604)
    ,(#605,#606)
    ,(#607,#608)
    ,(#609,#610)
    ,(#611,#612)
    ,(#613,#614)
    ,(#615,#616
    )),.UNSPECIFIED.,.F.,.F.,.F.,(8,8),(2,2),(4.712388980385,
    6.28318530718),(0.,1.),.PIECEWISE_BEZIER_KNOTS.);
#601 = CARTESIAN_POINT('',(89.,-73.5,0.));
#602 = CARTESIAN_POINT('',(80.,-82.,120.));
#603 = CARTESIAN_POINT('',(89.224399475256,-73.5,0.));
#604 = CARTESIAN_POINT('',(80.224399475257,-82.,120.));
#605 = CARTESIAN_POINT('',(89.448797864983,-73.55874888655,0.));
#606 = CARTESIAN_POINT('',(80.448797864983,-82.05874888655,120.));
#607 = CARTESIAN_POINT('',(89.654746940824,-73.67623727779,0.));
#608 = CARTESIAN_POINT('',(80.654746940823,-82.17623727779,
    119.99999999999));
#609 = CARTESIAN_POINT('',(89.823762722202,-73.84525305917,0.));
#610 = CARTESIAN_POINT('',(80.823762722202,-82.34525305917,120.));
#611 = CARTESIAN_POINT('',(89.941251113448,-74.05120213501,0.));
#612 = CARTESIAN_POINT('',(80.941251113448,-82.55120213501,
    119.99999999999));
#613 = CARTESIAN_POINT('',(90.,-74.27560052474,0.));
#614 = CARTESIAN_POINT('',(81.,-82.77560052474,120.));
#615 = CARTESIAN_POINT('',(90.,-74.5,0.));
#616 = CARTESIAN_POINT('',(81.,-83.,120.));
#617 = ADVANCED_FACE('',(#618),#642,.T.);
#618 = FACE_BOUND('',#619,.T.);
#619 = EDGE_LOOP('',(#620,#628,#635,#641));
#620 = ORIENTED_EDGE('',*,*,#621,.T.);
#621 = EDGE_CURVE('',#578,#622,#624,.T.);
#622 = VERTEX_POINT('',#623);
#623 = CARTESIAN_POINT('',(90.,-75.5,0.));
#624 = LINE('',#625,#626);
#625 = CARTESIAN_POINT('',(90.,-74.5,0.));
#626 = VECTOR('',#627,1.);
#627 = DIRECTION('',(-0.,-1.,-0.));
#628 = ORIENTED_EDGE('',*,*,#629,.T.);
#629 = EDGE_CURVE('',#622,#630,#632,.T.);
#630 = VERTEX_POINT('',#631);
#631 = CARTESIAN_POINT('',(81.,-84.5,120.));
#632 = B_SPLINE_CURVE_WITH_KNOTS('',1,(#633,#634),.UNSPECIFIED.,.F.,.F.,
  (2,2),(0.,1.),.PIECEWISE_BEZIER_KNOTS.);
#633 = CARTESIAN_POINT('',(90.,-75.5,0.));
#634 = CARTESIAN_POINT('',(81.,-84.5,120.));
#635 = ORIENTED_EDGE('',*,*,#636,.F.);
#636 = EDGE_CURVE('',#587,#630,#637,.T.);
#637 = LINE('',#638,#639);
#638 = CARTESIAN_POINT('',(81.,-83.,120.));
#639 = VECTOR('',#640,1.);
#640 = DIRECTION('',(-0.,-1.,-0.));
#641 = ORIENTED_EDGE('',*,*,#586,.F.);
#642 = B_SPLINE_SURFACE_WITH_KNOTS('',1,1,(
    (#643,#644)
    ,(#645,#646
  )),.UNSPECIFIED.,.F.,.F.,.F.,(2,2),(2,2),(0.,1.5),(0.,1.),
  .PIECEWISE_BEZIER_KNOTS.);
#643 = CARTESIAN_POINT('',(90.,-74.5,0.));
#644 = CARTESIAN_POINT('',(81.,-83.,120.));
#645 = CARTESIAN_POINT('',(90.,-75.5,0.));
#646 = CARTESIAN_POINT('',(81.,-84.5,120.));
#647 = ADVANCED_FACE('',(#648),#674,.T.);
#648 = FACE_BOUND('',#649,.T.);
#649 = EDGE_LOOP('',(#650,#659,#666,#673));
#650 = ORIENTED_EDGE('',*,*,#651,.F.);
#651 = EDGE_CURVE('',#652,#622,#654,.T.);
#652 = VERTEX_POINT('',#653);
#653 = CARTESIAN_POINT('',(90.5,-76.,0.));
#654 = CIRCLE('',#655,0.5);
#655 = AXIS2_PLACEMENT_3D('',#656,#657,#658);
#656 = CARTESIAN_POINT('',(90.5,-75.5,0.));
#657 = DIRECTION('',(0.,0.,-1.));
#658 = DIRECTION('',(1.,0.,0.));
#659 = ORIENTED_EDGE('',*,*,#660,.T.);
#660 = EDGE_CURVE('',#652,#661,#663,.T.);
#661 = VERTEX_POINT('',#662);
#662 = CARTESIAN_POINT('',(81.5,-85.,120.));
#663 = B_SPLINE_CURVE_WITH_KNOTS('',1,(#664,#665),.UNSPECIFIED.,.F.,.F.,
  (2,2),(0.,1.),.PIECEWISE_BEZIER_KNOTS.);
#664 = CARTESIAN_POINT('',(90.5,-76.,0.));
#665 = CARTESIAN_POINT('',(81.5,-85.,120.));
#666 = ORIENTED_EDGE('',*,*,#667,.T.);
#667 = EDGE_CURVE('',#661,#630,#668,.T.);
#668 = CIRCLE('',#669,0.5);
#669 = AXIS2_PLACEMENT_3D('',#670,#671,#672);
#670 = CARTESIAN_POINT('',(81.5,-84.5,120.));
#671 = DIRECTION('',(0.,0.,-1.));
#672 = DIRECTION('',(1.,0.,0.));
#673 = ORIENTED_EDGE('',*,*,#629,.F.);
#674 = B_SPLINE_SURFACE_WITH_KNOTS('',7,1,(
    (#675,#676)
    ,(#677,#678)
    ,(#679,#680)
    ,(#681,#682)
    ,(#683,#684)
    ,(#685,#686)
    ,(#687,#688)
    ,(#689,#690
    )),.UNSPECIFIED.,.F.,.F.,.F.,(8,8),(2,2),(3.14159265359,
    4.712388980385),(0.,1.),.PIECEWISE_BEZIER_KNOTS.);
#675 = CARTESIAN_POINT('',(90.,-75.5,0.));
#676 = CARTESIAN_POINT('',(81.,-84.5,120.));
#677 = CARTESIAN_POINT('',(90.,-75.61219973762,0.));
#678 = CARTESIAN_POINT('',(81.,-84.61219973762,120.));
#679 = CARTESIAN_POINT('',(90.029374443274,-75.72439893249,0.));
#680 = CARTESIAN_POINT('',(81.029374443276,-84.72439893249,120.));
#681 = CARTESIAN_POINT('',(90.088118638902,-75.82737347041,0.));
#682 = CARTESIAN_POINT('',(81.088118638899,-84.82737347041,120.));
#683 = CARTESIAN_POINT('',(90.172626529586,-75.9118813611,0.));
#684 = CARTESIAN_POINT('',(81.172626529589,-84.9118813611,120.));
#685 = CARTESIAN_POINT('',(90.27560106751,-75.97062555672,0.));
#686 = CARTESIAN_POINT('',(81.275601067508,-84.97062555672,120.));
#687 = CARTESIAN_POINT('',(90.387800262371,-76.,0.));
#688 = CARTESIAN_POINT('',(81.387800262372,-85.,120.));
#689 = CARTESIAN_POINT('',(90.5,-76.,0.));
#690 = CARTESIAN_POINT('',(81.5,-85.,120.));
#691 = ADVANCED_FACE('',(#692),#716,.T.);
#692 = FACE_BOUND('',#693,.T.);
#693 = EDGE_LOOP('',(#694,#702,#709,#715));
#694 = ORIENTED_EDGE('',*,*,#695,.T.);
#695 = EDGE_CURVE('',#652,#696,#698,.T.);
#696 = VERTEX_POINT('',#697);
#697 = CARTESIAN_POINT('',(102.,-76.,0.));
#698 = LINE('',#699,#700);
#699 = CARTESIAN_POINT('',(90.5,-76.,0.));
#700 = VECTOR('',#701,1.);
#701 = DIRECTION('',(1.,0.,0.));
#702 = ORIENTED_EDGE('',*,*,#703,.T.);
#703 = EDGE_CURVE('',#696,#704,#706,.T.);
#704 = VERTEX_POINT('',#705);
#705 = CARTESIAN_POINT('',(109.,-85.,120.));
#706 = B_SPLINE_CURVE_WITH_KNOTS('',1,(#707,#708),.UNSPECIFIED.,.F.,.F.,
  (2,2),(0.,1.),.PIECEWISE_BEZIER_KNOTS.);
#707 = CARTESIAN_POINT('',(102.,-76.,0.));
#708 = CARTESIAN_POINT('',(109.,-85.,120.));
#709 = ORIENTED_EDGE('',*,*,#710,.F.);
#710 = EDGE_CURVE('',#661,#704,#711,.T.);
#711 = LINE('',#712,#713);
#712 = CARTESIAN_POINT('',(81.5,-85.,120.));
#713 = VECTOR('',#714,1.);
#714 = DIRECTION('',(1.,0.,0.));
#715 = ORIENTED_EDGE('',*,*,#660,.F.);
#716 = B_SPLINE_SURFACE_WITH_KNOTS('',1,1,(
    (#717,#718)
    ,(#719,#720
    )),.UNSPECIFIED.,.F.,.F.,.F.,(2,2),(2,2),(0.,27.5),(0.,1.),
  .PIECEWISE_BEZIER_KNOTS.);
#717 = CARTESIAN_POINT('',(90.5,-76.,0.));
#718 = CARTESIAN_POINT('',(81.5,-85.,120.));
#719 = CARTESIAN_POINT('',(102.,-76.,0.));
#720 = CARTESIAN_POINT('',(109.,-85.,120.));
#721 = ADVANCED_FACE('',(#722),#748,.T.);
#722 = FACE_BOUND('',#723,.T.);
#723 = EDGE_LOOP('',(#724,#733,#740,#747));
#724 = ORIENTED_EDGE('',*,*,#725,.F.);
#725 = EDGE_CURVE('',#726,#696,#728,.T.);
#726 = VERTEX_POINT('',#727);
#727 = CARTESIAN_POINT('',(119.,-59.,0.));
#728 = CIRCLE('',#729,17.);
#729 = AXIS2_PLACEMENT_3D('',#730,#731,#732);
#730 = CARTESIAN_POINT('',(102.,-59.,0.));
#731 = DIRECTION('',(0.,0.,-1.));
#732 = DIRECTION('',(1.,0.,0.));
#733 = ORIENTED_EDGE('',*,*,#734,.T.);
#734 = EDGE_CURVE('',#726,#735,#737,.T.);
#735 = VERTEX_POINT('',#736);
#736 = CARTESIAN_POINT('',(128.,-66.,120.));
#737 = B_SPLINE_CURVE_WITH_KNOTS('',1,(#738,#739),.UNSPECIFIED.,.F.,.F.,
  (2,2),(0.,1.),.PIECEWISE_BEZIER_KNOTS.);
#738 = CARTESIAN_POINT('',(119.,-59.,0.));
#739 = CARTESIAN_POINT('',(128.,-66.,120.));
#740 = ORIENTED_EDGE('',*,*,#741,.T.);
#741 = EDGE_CURVE('',#735,#704,#742,.T.);
#742 = CIRCLE('',#743,19.);
#743 = AXIS2_PLACEMENT_3D('',#744,#745,#746);
#744 = CARTESIAN_POINT('',(109.,-66.,120.));
#745 = DIRECTION('',(0.,0.,-1.));
#746 = DIRECTION('',(1.,0.,0.));
#747 = ORIENTED_EDGE('',*,*,#703,.F.);
#748 = B_SPLINE_SURFACE_WITH_KNOTS('',8,1,(
    (#749,#750)
    ,(#751,#752)
    ,(#753,#754)
    ,(#755,#756)
    ,(#757,#758)
    ,(#759,#760)
    ,(#761,#762)
    ,(#763,#764)
    ,(#765,#766
    )),.UNSPECIFIED.,.F.,.F.,.F.,(9,9),(2,2),(4.712388980385,
    6.28318530718),(0.,1.),.PIECEWISE_BEZIER_KNOTS.);
#749 = CARTESIAN_POINT('',(102.,-76.,0.));
#750 = CARTESIAN_POINT('',(109.,-85.,120.));
#751 = CARTESIAN_POINT('',(105.33794219443,-75.99999999999,0.));
#752 = CARTESIAN_POINT('',(112.73064127613,-84.99999999999,
    119.99999999999));
#753 = CARTESIAN_POINT('',(108.67588543957,-75.25096658766,0.));
#754 = CARTESIAN_POINT('',(116.46128372658,-84.16284500974,120.));
#755 = CARTESIAN_POINT('',(111.81772498368,-73.75290711981,0.));
#756 = CARTESIAN_POINT('',(119.97275145235,-82.48854325155,
    119.99999999999));
#757 = CARTESIAN_POINT('',(114.56739884826,-71.56739884826,0.));
#758 = CARTESIAN_POINT('',(123.04591635982,-80.04591635982,120.));
#759 = CARTESIAN_POINT('',(116.7529071198,-68.81772498369,0.));
#760 = CARTESIAN_POINT('',(125.48854325155,-76.97275145236,
    119.99999999999));
#761 = CARTESIAN_POINT('',(118.25096658766,-65.67588543957,0.));
#762 = CARTESIAN_POINT('',(127.16284500974,-73.46128372658,120.));
#763 = CARTESIAN_POINT('',(118.99999999999,-62.33794219443,0.));
#764 = CARTESIAN_POINT('',(127.99999999999,-69.73064127613,
    119.99999999999));
#765 = CARTESIAN_POINT('',(119.,-59.,0.));
#766 = CARTESIAN_POINT('',(128.,-66.,120.));
#767 = ADVANCED_FACE('',(#768),#792,.T.);
#768 = FACE_BOUND('',#769,.T.);
#769 = EDGE_LOOP('',(#770,#778,#785,#791));
#770 = ORIENTED_EDGE('',*,*,#771,.T.);
#771 = EDGE_CURVE('',#726,#772,#774,.T.);
#772 = VERTEX_POINT('',#773);
#773 = CARTESIAN_POINT('',(119.,-47.5,0.));
#774 = LINE('',#775,#776);
#775 = CARTESIAN_POINT('',(119.,-59.,0.));
#776 = VECTOR('',#777,1.);
#777 = DIRECTION('',(0.,1.,0.));
#778 = ORIENTED_EDGE('',*,*,#779,.T.);
#779 = EDGE_CURVE('',#772,#780,#782,.T.);
#780 = VERTEX_POINT('',#781);
#781 = CARTESIAN_POINT('',(128.,-40.5,120.));
#782 = B_SPLINE_CURVE_WITH_KNOTS('',1,(#783,#784),.UNSPECIFIED.,.F.,.F.,
  (2,2),(0.,1.),.PIECEWISE_BEZIER_KNOTS.);
#783 = CARTESIAN_POINT('',(119.,-47.5,0.));
#784 = CARTESIAN_POINT('',(128.,-40.5,120.));
#785 = ORIENTED_EDGE('',*,*,#786,.F.);
#786 = EDGE_CURVE('',#735,#780,#787,.T.);
#787 = LINE('',#788,#789);
#788 = CARTESIAN_POINT('',(128.,-66.,120.));
#789 = VECTOR('',#790,1.);
#790 = DIRECTION('',(0.,1.,0.));
#791 = ORIENTED_EDGE('',*,*,#734,.F.);
#792 = B_SPLINE_SURFACE_WITH_KNOTS('',1,1,(
    (#793,#794)
    ,(#795,#796
    )),.UNSPECIFIED.,.F.,.F.,.F.,(2,2),(2,2),(0.,25.5),(0.,1.),
  .PIECEWISE_BEZIER_KNOTS.);
#793 = CARTESIAN_POINT('',(119.,-59.,0.));
#794 = CARTESIAN_POINT('',(128.,-66.,120.));
#795 = CARTESIAN_POINT('',(119.,-47.5,0.));
#796 = CARTESIAN_POINT('',(128.,-40.5,120.));
#797 = ADVANCED_FACE('',(#798),#824,.T.);
#798 = FACE_BOUND('',#799,.T.);
#799 = EDGE_LOOP('',(#800,#809,#816,#823));
#800 = ORIENTED_EDGE('',*,*,#801,.F.);
#801 = EDGE_CURVE('',#802,#772,#804,.T.);
#802 = VERTEX_POINT('',#803);
#803 = CARTESIAN_POINT('',(118.5,-47.,0.));
#804 = CIRCLE('',#805,0.5);
#805 = AXIS2_PLACEMENT_3D('',#806,#807,#808);
#806 = CARTESIAN_POINT('',(118.5,-47.5,0.));
#807 = DIRECTION('',(0.,0.,-1.));
#808 = DIRECTION('',(1.,0.,0.));
#809 = ORIENTED_EDGE('',*,*,#810,.T.);
#810 = EDGE_CURVE('',#802,#811,#813,.T.);
#811 = VERTEX_POINT('',#812);
#812 = CARTESIAN_POINT('',(127.5,-40.,120.));
#813 = B_SPLINE_CURVE_WITH_KNOTS('',1,(#814,#815),.UNSPECIFIED.,.F.,.F.,
  (2,2),(0.,1.),.PIECEWISE_BEZIER_KNOTS.);
#814 = CARTESIAN_POINT('',(118.5,-47.,0.));
#815 = CARTESIAN_POINT('',(127.5,-40.,120.));
#816 = ORIENTED_EDGE('',*,*,#817,.T.);
#817 = EDGE_CURVE('',#811,#780,#818,.T.);
#818 = CIRCLE('',#819,0.5);
#819 = AXIS2_PLACEMENT_3D('',#820,#821,#822);
#820 = CARTESIAN_POINT('',(127.5,-40.5,120.));
#821 = DIRECTION('',(0.,0.,-1.));
#822 = DIRECTION('',(1.,0.,0.));
#823 = ORIENTED_EDGE('',*,*,#779,.F.);
#824 = B_SPLINE_SURFACE_WITH_KNOTS('',7,1,(
    (#825,#826)
    ,(#827,#828)
    ,(#829,#830)
    ,(#831,#832)
    ,(#833,#834)
    ,(#835,#836)
    ,(#837,#838)
    ,(#839,#840
    )),.UNSPECIFIED.,.F.,.F.,.F.,(8,8),(2,2),(0.,1.570796326795),(0.,1.)
  ,.PIECEWISE_BEZIER_KNOTS.);
#825 = CARTESIAN_POINT('',(119.,-47.5,0.));
#826 = CARTESIAN_POINT('',(128.,-40.5,120.));
#827 = CARTESIAN_POINT('',(119.,-47.38780026237,0.));
#828 = CARTESIAN_POINT('',(128.,-40.38780026237,120.));
#829 = CARTESIAN_POINT('',(118.97062555672,-47.2756010675,0.));
#830 = CARTESIAN_POINT('',(127.97062555672,-40.2756010675,
    119.99999999999));
#831 = CARTESIAN_POINT('',(118.9118813611,-47.17262652959,0.));
#832 = CARTESIAN_POINT('',(127.9118813611,-40.17262652959,120.));
#833 = CARTESIAN_POINT('',(118.8273734704,-47.08811863889,0.));
#834 = CARTESIAN_POINT('',(127.82737347041,-40.08811863889,
    119.99999999999));
#835 = CARTESIAN_POINT('',(118.72439893249,-47.02937444327,0.));
#836 = CARTESIAN_POINT('',(127.72439893249,-40.02937444327,120.));
#837 = CARTESIAN_POINT('',(118.61219973762,-47.,0.));
#838 = CARTESIAN_POINT('',(127.61219973762,-40.,120.));
#839 = CARTESIAN_POINT('',(118.5,-47.,0.));
#840 = CARTESIAN_POINT('',(127.5,-40.,120.));
#841 = ADVANCED_FACE('',(#842),#858,.T.);
#842 = FACE_BOUND('',#843,.T.);
#843 = EDGE_LOOP('',(#844,#850,#851,#857));
#844 = ORIENTED_EDGE('',*,*,#845,.T.);
#845 = EDGE_CURVE('',#802,#494,#846,.T.);
#846 = LINE('',#847,#848);
#847 = CARTESIAN_POINT('',(118.5,-47.,0.));
#848 = VECTOR('',#849,1.);
#849 = DIRECTION('',(-1.,-0.,-0.));
#850 = ORIENTED_EDGE('',*,*,#512,.T.);
#851 = ORIENTED_EDGE('',*,*,#852,.F.);
#852 = EDGE_CURVE('',#811,#504,#853,.T.);
#853 = LINE('',#854,#855);
#854 = CARTESIAN_POINT('',(127.5,-40.,120.));
#855 = VECTOR('',#856,1.);
#856 = DIRECTION('',(-1.,-0.,-0.));
#857 = ORIENTED_EDGE('',*,*,#810,.F.);
#858 = B_SPLINE_SURFACE_WITH_KNOTS('',1,1,(
    (#859,#860)
    ,(#861,#862
  )),.UNSPECIFIED.,.F.,.F.,.F.,(2,2),(2,2),(0.,6.5),(0.,1.),
  .PIECEWISE_BEZIER_KNOTS.);
#859 = CARTESIAN_POINT('',(118.5,-47.,0.));
#860 = CARTESIAN_POINT('',(127.5,-40.,120.));
#861 = CARTESIAN_POINT('',(115.,-47.,0.));
#862 = CARTESIAN_POINT('',(121.,-40.,120.));
#863 = ADVANCED_FACE('',(#864),#890,.T.);
#864 = FACE_BOUND('',#865,.T.);
#865 = EDGE_LOOP('',(#866,#875,#882,#889));
#866 = ORIENTED_EDGE('',*,*,#867,.T.);
#867 = EDGE_CURVE('',#434,#868,#870,.T.);
#868 = VERTEX_POINT('',#869);
#869 = CARTESIAN_POINT('',(-90.,74.5,-1.998401444325E-14));
#870 = CIRCLE('',#871,1.);
#871 = AXIS2_PLACEMENT_3D('',#872,#873,#874);
#872 = CARTESIAN_POINT('',(-89.,74.5,-1.976196983833E-14));
#873 = DIRECTION('',(2.22044604925E-16,-2.465190328816E-32,-1.));
#874 = DIRECTION('',(-1.,2.22044604925E-16,-2.22044604925E-16));
#875 = ORIENTED_EDGE('',*,*,#876,.T.);
#876 = EDGE_CURVE('',#868,#877,#879,.T.);
#877 = VERTEX_POINT('',#878);
#878 = CARTESIAN_POINT('',(-81.,83.,120.));
#879 = B_SPLINE_CURVE_WITH_KNOTS('',1,(#880,#881),.UNSPECIFIED.,.F.,.F.,
  (2,2),(0.,1.),.PIECEWISE_BEZIER_KNOTS.);
#880 = CARTESIAN_POINT('',(-90.,74.5,-1.998401444325E-14));
#881 = CARTESIAN_POINT('',(-81.,83.,120.));
#882 = ORIENTED_EDGE('',*,*,#883,.F.);
#883 = EDGE_CURVE('',#442,#877,#884,.T.);
#884 = CIRCLE('',#885,1.);
#885 = AXIS2_PLACEMENT_3D('',#886,#887,#888);
#886 = CARTESIAN_POINT('',(-80.,83.,120.));
#887 = DIRECTION('',(2.22044604925E-16,-2.465190328816E-32,-1.));
#888 = DIRECTION('',(-1.,2.22044604925E-16,-2.22044604925E-16));
#889 = ORIENTED_EDGE('',*,*,#441,.F.);
#890 = B_SPLINE_SURFACE_WITH_KNOTS('',7,1,(
    (#891,#892)
    ,(#893,#894)
    ,(#895,#896)
    ,(#897,#898)
    ,(#899,#900)
    ,(#901,#902)
    ,(#903,#904)
    ,(#905,#906
    )),.UNSPECIFIED.,.F.,.F.,.F.,(8,8),(2,2),(4.712388980385,
    6.28318530718),(0.,1.),.PIECEWISE_BEZIER_KNOTS.);
#891 = CARTESIAN_POINT('',(-89.,73.5,-1.976196983833E-14));
#892 = CARTESIAN_POINT('',(-80.,82.,120.));
#893 = CARTESIAN_POINT('',(-89.22439947525,73.5,-1.981179653116E-14));
#894 = CARTESIAN_POINT('',(-80.22439947525,82.,120.));
#895 = CARTESIAN_POINT('',(-89.44879786498,73.558748886552,
    -1.986162298295E-14));
#896 = CARTESIAN_POINT('',(-80.44879786498,82.058748886552,120.));
#897 = CARTESIAN_POINT('',(-89.65474694082,73.676237277798,
    -1.990735286413E-14));
#898 = CARTESIAN_POINT('',(-80.65474694082,82.176237277797,
    119.99999999999));
#899 = CARTESIAN_POINT('',(-89.8237627222,73.845253059177,
    -1.994488190653E-14));
#900 = CARTESIAN_POINT('',(-80.8237627222,82.345253059177,120.));
#901 = CARTESIAN_POINT('',(-89.94125111344,74.051202135016,
    -1.997096956995E-14));
#902 = CARTESIAN_POINT('',(-80.94125111344,82.551202135017,
    119.99999999999));
#903 = CARTESIAN_POINT('',(-90.,74.275600524744,-1.998401444325E-14));
#904 = CARTESIAN_POINT('',(-81.,82.775600524744,120.));
#905 = CARTESIAN_POINT('',(-90.,74.5,-1.998401444325E-14));
#906 = CARTESIAN_POINT('',(-81.,83.,120.));
#907 = ADVANCED_FACE('',(#908),#932,.T.);
#908 = FACE_BOUND('',#909,.T.);
#909 = EDGE_LOOP('',(#910,#918,#925,#931));
#910 = ORIENTED_EDGE('',*,*,#911,.T.);
#911 = EDGE_CURVE('',#868,#912,#914,.T.);
#912 = VERTEX_POINT('',#913);
#913 = CARTESIAN_POINT('',(-90.,75.5,-1.998401444325E-14));
#914 = LINE('',#915,#916);
#915 = CARTESIAN_POINT('',(-90.,74.5,-1.998401444325E-14));
#916 = VECTOR('',#917,1.);
#917 = DIRECTION('',(2.22044604925E-16,1.,2.465190328816E-32));
#918 = ORIENTED_EDGE('',*,*,#919,.T.);
#919 = EDGE_CURVE('',#912,#920,#922,.T.);
#920 = VERTEX_POINT('',#921);
#921 = CARTESIAN_POINT('',(-81.,84.5,120.));
#922 = B_SPLINE_CURVE_WITH_KNOTS('',1,(#923,#924),.UNSPECIFIED.,.F.,.F.,
  (2,2),(0.,1.),.PIECEWISE_BEZIER_KNOTS.);
#923 = CARTESIAN_POINT('',(-90.,75.5,-1.998401444325E-14));
#924 = CARTESIAN_POINT('',(-81.,84.5,120.));
#925 = ORIENTED_EDGE('',*,*,#926,.F.);
#926 = EDGE_CURVE('',#877,#920,#927,.T.);
#927 = LINE('',#928,#929);
#928 = CARTESIAN_POINT('',(-81.,83.,120.));
#929 = VECTOR('',#930,1.);
#930 = DIRECTION('',(2.22044604925E-16,1.,2.465190328816E-32));
#931 = ORIENTED_EDGE('',*,*,#876,.F.);
#932 = B_SPLINE_SURFACE_WITH_KNOTS('',1,1,(
    (#933,#934)
    ,(#935,#936
  )),.UNSPECIFIED.,.F.,.F.,.F.,(2,2),(2,2),(0.,1.5),(0.,1.),
  .PIECEWISE_BEZIER_KNOTS.);
#933 = CARTESIAN_POINT('',(-90.,74.5,-1.998401444325E-14));
#934 = CARTESIAN_POINT('',(-81.,83.,120.));
#935 = CARTESIAN_POINT('',(-90.,75.5,-1.998401444325E-14));
#936 = CARTESIAN_POINT('',(-81.,84.5,120.));
#937 = ADVANCED_FACE('',(#938),#964,.T.);
#938 = FACE_BOUND('',#939,.T.);
#939 = EDGE_LOOP('',(#940,#949,#956,#963));
#940 = ORIENTED_EDGE('',*,*,#941,.F.);
#941 = EDGE_CURVE('',#942,#912,#944,.T.);
#942 = VERTEX_POINT('',#943);
#943 = CARTESIAN_POINT('',(-90.5,76.,-2.009503674572E-14));
#944 = CIRCLE('',#945,0.5);
#945 = AXIS2_PLACEMENT_3D('',#946,#947,#948);
#946 = CARTESIAN_POINT('',(-90.5,75.5,-2.009503674572E-14));
#947 = DIRECTION('',(2.22044604925E-16,-2.465190328816E-32,-1.));
#948 = DIRECTION('',(-1.,2.22044604925E-16,-2.22044604925E-16));
#949 = ORIENTED_EDGE('',*,*,#950,.T.);
#950 = EDGE_CURVE('',#942,#951,#953,.T.);
#951 = VERTEX_POINT('',#952);
#952 = CARTESIAN_POINT('',(-81.5,85.,120.));
#953 = B_SPLINE_CURVE_WITH_KNOTS('',1,(#954,#955),.UNSPECIFIED.,.F.,.F.,
  (2,2),(0.,1.),.PIECEWISE_BEZIER_KNOTS.);
#954 = CARTESIAN_POINT('',(-90.5,76.,-2.009503674572E-14));
#955 = CARTESIAN_POINT('',(-81.5,85.,120.));
#956 = ORIENTED_EDGE('',*,*,#957,.T.);
#957 = EDGE_CURVE('',#951,#920,#958,.T.);
#958 = CIRCLE('',#959,0.5);
#959 = AXIS2_PLACEMENT_3D('',#960,#961,#962);
#960 = CARTESIAN_POINT('',(-81.5,84.5,120.));
#961 = DIRECTION('',(2.22044604925E-16,-2.465190328816E-32,-1.));
#962 = DIRECTION('',(-1.,2.22044604925E-16,-2.22044604925E-16));
#963 = ORIENTED_EDGE('',*,*,#919,.F.);
#964 = B_SPLINE_SURFACE_WITH_KNOTS('',7,1,(
    (#965,#966)
    ,(#967,#968)
    ,(#969,#970)
    ,(#971,#972)
    ,(#973,#974)
    ,(#975,#976)
    ,(#977,#978)
    ,(#979,#980
    )),.UNSPECIFIED.,.F.,.F.,.F.,(8,8),(2,2),(3.14159265359,
    4.712388980385),(0.,1.),.PIECEWISE_BEZIER_KNOTS.);
#965 = CARTESIAN_POINT('',(-90.,75.5,-1.998401444325E-14));
#966 = CARTESIAN_POINT('',(-81.,84.5,120.));
#967 = CARTESIAN_POINT('',(-90.,75.612199737628,-1.998401444325E-14));
#968 = CARTESIAN_POINT('',(-81.,84.612199737628,120.));
#969 = CARTESIAN_POINT('',(-90.02937444327,75.724398932491,
    -1.99905368799E-14));
#970 = CARTESIAN_POINT('',(-81.02937444327,84.724398932491,120.));
#971 = CARTESIAN_POINT('',(-90.0881186389,75.827373470413,
    -2.000358071161E-14));
#972 = CARTESIAN_POINT('',(-81.08811863889,84.827373470412,120.));
#973 = CARTESIAN_POINT('',(-90.17262652958,75.9118813611,
    -2.002234523281E-14));
#974 = CARTESIAN_POINT('',(-81.17262652958,84.911881361101,120.));
#975 = CARTESIAN_POINT('',(-90.27560106751,75.970625556725,
    -2.004521017341E-14));
#976 = CARTESIAN_POINT('',(-81.2756010675,84.970625556724,120.));
#977 = CARTESIAN_POINT('',(-90.38780026237,76.,-2.00701233993E-14));
#978 = CARTESIAN_POINT('',(-81.38780026237,85.,120.));
#979 = CARTESIAN_POINT('',(-90.5,76.,-2.009503674572E-14));
#980 = CARTESIAN_POINT('',(-81.5,85.,120.));
#981 = ADVANCED_FACE('',(#982),#1006,.T.);
#982 = FACE_BOUND('',#983,.T.);
#983 = EDGE_LOOP('',(#984,#992,#999,#1005));
#984 = ORIENTED_EDGE('',*,*,#985,.T.);
#985 = EDGE_CURVE('',#942,#986,#988,.T.);
#986 = VERTEX_POINT('',#987);
#987 = CARTESIAN_POINT('',(-102.,76.,-2.264854970235E-14));
#988 = LINE('',#989,#990);
#989 = CARTESIAN_POINT('',(-90.5,76.,-2.009503674572E-14));
#990 = VECTOR('',#991,1.);
#991 = DIRECTION('',(-1.,2.22044604925E-16,-2.22044604925E-16));
#992 = ORIENTED_EDGE('',*,*,#993,.T.);
#993 = EDGE_CURVE('',#986,#994,#996,.T.);
#994 = VERTEX_POINT('',#995);
#995 = CARTESIAN_POINT('',(-109.,85.,120.));
#996 = B_SPLINE_CURVE_WITH_KNOTS('',1,(#997,#998),.UNSPECIFIED.,.F.,.F.,
  (2,2),(0.,1.),.PIECEWISE_BEZIER_KNOTS.);
#997 = CARTESIAN_POINT('',(-102.,76.,-2.264854970235E-14));
#998 = CARTESIAN_POINT('',(-109.,85.,120.));
#999 = ORIENTED_EDGE('',*,*,#1000,.F.);
#1000 = EDGE_CURVE('',#951,#994,#1001,.T.);
#1001 = LINE('',#1002,#1003);
#1002 = CARTESIAN_POINT('',(-81.5,85.,120.));
#1003 = VECTOR('',#1004,1.);
#1004 = DIRECTION('',(-1.,2.22044604925E-16,-2.22044604925E-16));
#1005 = ORIENTED_EDGE('',*,*,#950,.F.);
#1006 = B_SPLINE_SURFACE_WITH_KNOTS('',1,1,(
    (#1007,#1008)
    ,(#1009,#1010
    )),.UNSPECIFIED.,.F.,.F.,.F.,(2,2),(2,2),(0.,27.5),(0.,1.),
  .PIECEWISE_BEZIER_KNOTS.);
#1007 = CARTESIAN_POINT('',(-90.5,76.,-2.009503674572E-14));
#1008 = CARTESIAN_POINT('',(-81.5,85.,120.));
#1009 = CARTESIAN_POINT('',(-102.,76.,-2.264854970235E-14));
#1010 = CARTESIAN_POINT('',(-109.,85.,120.));
#1011 = ADVANCED_FACE('',(#1012),#1038,.T.);
#1012 = FACE_BOUND('',#1013,.T.);
#1013 = EDGE_LOOP('',(#1014,#1023,#1030,#1037));
#1014 = ORIENTED_EDGE('',*,*,#1015,.F.);
#1015 = EDGE_CURVE('',#1016,#986,#1018,.T.);
#1016 = VERTEX_POINT('',#1017);
#1017 = CARTESIAN_POINT('',(-119.,59.,-2.642330798608E-14));
#1018 = CIRCLE('',#1019,17.);
#1019 = AXIS2_PLACEMENT_3D('',#1020,#1021,#1022);
#1020 = CARTESIAN_POINT('',(-102.,59.,-2.264854970235E-14));
#1021 = DIRECTION('',(2.22044604925E-16,-2.465190328816E-32,-1.));
#1022 = DIRECTION('',(-1.,2.22044604925E-16,-2.22044604925E-16));
#1023 = ORIENTED_EDGE('',*,*,#1024,.T.);
#1024 = EDGE_CURVE('',#1016,#1025,#1027,.T.);
#1025 = VERTEX_POINT('',#1026);
#1026 = CARTESIAN_POINT('',(-128.,66.,120.));
#1027 = B_SPLINE_CURVE_WITH_KNOTS('',1,(#1028,#1029),.UNSPECIFIED.,.F.,
  .F.,(2,2),(0.,1.),.PIECEWISE_BEZIER_KNOTS.);
#1028 = CARTESIAN_POINT('',(-119.,59.,-2.642330798608E-14));
#1029 = CARTESIAN_POINT('',(-128.,66.,120.));
#1030 = ORIENTED_EDGE('',*,*,#1031,.T.);
#1031 = EDGE_CURVE('',#1025,#994,#1032,.T.);
#1032 = CIRCLE('',#1033,19.);
#1033 = AXIS2_PLACEMENT_3D('',#1034,#1035,#1036);
#1034 = CARTESIAN_POINT('',(-109.,66.,120.));
#1035 = DIRECTION('',(2.22044604925E-16,-2.465190328816E-32,-1.));
#1036 = DIRECTION('',(-1.,2.22044604925E-16,-2.22044604925E-16));
#1037 = ORIENTED_EDGE('',*,*,#993,.F.);
#1038 = B_SPLINE_SURFACE_WITH_KNOTS('',8,1,(
    (#1039,#1040)
    ,(#1041,#1042)
    ,(#1043,#1044)
    ,(#1045,#1046)
    ,(#1047,#1048)
    ,(#1049,#1050)
    ,(#1051,#1052)
    ,(#1053,#1054)
    ,(#1055,#1056
    )),.UNSPECIFIED.,.F.,.F.,.F.,(9,9),(2,2),(4.712388980385,
    6.28318530718),(0.,1.),.PIECEWISE_BEZIER_KNOTS.);
#1039 = CARTESIAN_POINT('',(-102.,76.,-2.264854970235E-14));
#1040 = CARTESIAN_POINT('',(-109.,85.,120.));
#1041 = CARTESIAN_POINT('',(-105.3379421944,75.999999999999,
    -2.338972175818E-14));
#1042 = CARTESIAN_POINT('',(-112.7306412761,84.999999999999,
    119.99999999999));
#1043 = CARTESIAN_POINT('',(-108.6758854395,75.250966587662,
    -2.413089404731E-14));
#1044 = CARTESIAN_POINT('',(-116.4612837265,84.162845009741,120.));
#1045 = CARTESIAN_POINT('',(-111.8177249836,73.75290711981,
    -2.482852256762E-14));
#1046 = CARTESIAN_POINT('',(-119.9727514523,82.488543251551,
    119.99999999999));
#1047 = CARTESIAN_POINT('',(-114.5673988482,71.567398848263,
    -2.543907281455E-14));
#1048 = CARTESIAN_POINT('',(-123.0459163598,80.045916359824,120.));
#1049 = CARTESIAN_POINT('',(-116.7529071198,68.817724983693,
    -2.592435313527E-14));
#1050 = CARTESIAN_POINT('',(-125.4885432515,76.972751452362,
    119.99999999999));
#1051 = CARTESIAN_POINT('',(-118.2509665876,65.675885439573,
    -2.625698915796E-14));
#1052 = CARTESIAN_POINT('',(-127.1628450097,73.461283726582,120.));
#1053 = CARTESIAN_POINT('',(-118.9999999999,62.337942194439,
    -2.642330798608E-14));
#1054 = CARTESIAN_POINT('',(-127.9999999999,69.730641276137,
    119.99999999999));
#1055 = CARTESIAN_POINT('',(-119.,59.,-2.642330798608E-14));
#1056 = CARTESIAN_POINT('',(-128.,66.,120.));
#1057 = ADVANCED_FACE('',(#1058),#1082,.T.);
#1058 = FACE_BOUND('',#1059,.T.);
#1059 = EDGE_LOOP('',(#1060,#1068,#1075,#1081));
#1060 = ORIENTED_EDGE('',*,*,#1061,.T.);
#1061 = EDGE_CURVE('',#1016,#1062,#1064,.T.);
#1062 = VERTEX_POINT('',#1063);
#1063 = CARTESIAN_POINT('',(-119.,47.5,-2.642330798608E-14));
#1064 = LINE('',#1065,#1066);
#1065 = CARTESIAN_POINT('',(-119.,59.,-2.642330798608E-14));
#1066 = VECTOR('',#1067,1.);
#1067 = DIRECTION('',(-2.22044604925E-16,-1.,-2.465190328816E-32));
#1068 = ORIENTED_EDGE('',*,*,#1069,.T.);
#1069 = EDGE_CURVE('',#1062,#1070,#1072,.T.);
#1070 = VERTEX_POINT('',#1071);
#1071 = CARTESIAN_POINT('',(-128.,40.5,120.));
#1072 = B_SPLINE_CURVE_WITH_KNOTS('',1,(#1073,#1074),.UNSPECIFIED.,.F.,
  .F.,(2,2),(0.,1.),.PIECEWISE_BEZIER_KNOTS.);
#1073 = CARTESIAN_POINT('',(-119.,47.5,-2.642330798608E-14));
#1074 = CARTESIAN_POINT('',(-128.,40.5,120.));
#1075 = ORIENTED_EDGE('',*,*,#1076,.F.);
#1076 = EDGE_CURVE('',#1025,#1070,#1077,.T.);
#1077 = LINE('',#1078,#1079);
#1078 = CARTESIAN_POINT('',(-128.,66.,120.));
#1079 = VECTOR('',#1080,1.);
#1080 = DIRECTION('',(-2.22044604925E-16,-1.,-2.465190328816E-32));
#1081 = ORIENTED_EDGE('',*,*,#1024,.F.);
#1082 = B_SPLINE_SURFACE_WITH_KNOTS('',1,1,(
    (#1083,#1084)
    ,(#1085,#1086
    )),.UNSPECIFIED.,.F.,.F.,.F.,(2,2),(2,2),(0.,25.5),(0.,1.),
  .PIECEWISE_BEZIER_KNOTS.);
#1083 = CARTESIAN_POINT('',(-119.,59.,-2.642330798608E-14));
#1084 = CARTESIAN_POINT('',(-128.,66.,120.));
#1085 = CARTESIAN_POINT('',(-119.,47.5,-2.642330798608E-14));
#1086 = CARTESIAN_POINT('',(-128.,40.5,120.));
#1087 = ADVANCED_FACE('',(#1088),#1114,.T.);
#1088 = FACE_BOUND('',#1089,.T.);
#1089 = EDGE_LOOP('',(#1090,#1099,#1106,#1113));
#1090 = ORIENTED_EDGE('',*,*,#1091,.F.);
#1091 = EDGE_CURVE('',#1092,#1062,#1094,.T.);
#1092 = VERTEX_POINT('',#1093);
#1093 = CARTESIAN_POINT('',(-118.5,47.,-2.631228568362E-14));
#1094 = CIRCLE('',#1095,0.5);
#1095 = AXIS2_PLACEMENT_3D('',#1096,#1097,#1098);
#1096 = CARTESIAN_POINT('',(-118.5,47.5,-2.631228568362E-14));
#1097 = DIRECTION('',(2.22044604925E-16,-2.465190328816E-32,-1.));
#1098 = DIRECTION('',(-1.,2.22044604925E-16,-2.22044604925E-16));
#1099 = ORIENTED_EDGE('',*,*,#1100,.T.);
#1100 = EDGE_CURVE('',#1092,#1101,#1103,.T.);
#1101 = VERTEX_POINT('',#1102);
#1102 = CARTESIAN_POINT('',(-127.5,40.,120.));
#1103 = B_SPLINE_CURVE_WITH_KNOTS('',1,(#1104,#1105),.UNSPECIFIED.,.F.,
  .F.,(2,2),(0.,1.),.PIECEWISE_BEZIER_KNOTS.);
#1104 = CARTESIAN_POINT('',(-118.5,47.,-2.631228568362E-14));
#1105 = CARTESIAN_POINT('',(-127.5,40.,120.));
#1106 = ORIENTED_EDGE('',*,*,#1107,.T.);
#1107 = EDGE_CURVE('',#1101,#1070,#1108,.T.);
#1108 = CIRCLE('',#1109,0.5);
#1109 = AXIS2_PLACEMENT_3D('',#1110,#1111,#1112);
#1110 = CARTESIAN_POINT('',(-127.5,40.5,120.));
#1111 = DIRECTION('',(2.22044604925E-16,-2.465190328816E-32,-1.));
#1112 = DIRECTION('',(-1.,2.22044604925E-16,-2.22044604925E-16));
#1113 = ORIENTED_EDGE('',*,*,#1069,.F.);
#1114 = B_SPLINE_SURFACE_WITH_KNOTS('',7,1,(
    (#1115,#1116)
    ,(#1117,#1118)
    ,(#1119,#1120)
    ,(#1121,#1122)
    ,(#1123,#1124)
    ,(#1125,#1126)
    ,(#1127,#1128)
    ,(#1129,#1130
    )),.UNSPECIFIED.,.F.,.F.,.F.,(8,8),(2,2),(0.,1.570796326795),(0.,1.)
  ,.PIECEWISE_BEZIER_KNOTS.);
#1115 = CARTESIAN_POINT('',(-119.,47.5,-2.642330798608E-14));
#1116 = CARTESIAN_POINT('',(-128.,40.5,120.));
#1117 = CARTESIAN_POINT('',(-119.,47.387800262372,-2.642330798608E-14));
#1118 = CARTESIAN_POINT('',(-128.,40.387800262372,120.));
#1119 = CARTESIAN_POINT('',(-118.9706255567,47.275601067507,
    -2.641678554943E-14));
#1120 = CARTESIAN_POINT('',(-127.9706255567,40.275601067507,
    119.99999999999));
#1121 = CARTESIAN_POINT('',(-118.9118813611,47.17262652959,
    -2.640374171772E-14));
#1122 = CARTESIAN_POINT('',(-127.9118813611,40.17262652959,120.));
#1123 = CARTESIAN_POINT('',(-118.8273734704,47.088118638897,
    -2.638497719652E-14));
#1124 = CARTESIAN_POINT('',(-127.8273734704,40.088118638897,
    119.99999999999));
#1125 = CARTESIAN_POINT('',(-118.7243989324,47.029374443277,
    -2.636211225593E-14));
#1126 = CARTESIAN_POINT('',(-127.7243989324,40.029374443277,120.));
#1127 = CARTESIAN_POINT('',(-118.6121997376,47.,-2.633719903003E-14));
#1128 = CARTESIAN_POINT('',(-127.6121997376,40.,120.));
#1129 = CARTESIAN_POINT('',(-118.5,47.,-2.631228568362E-14));
#1130 = CARTESIAN_POINT('',(-127.5,40.,120.));
#1131 = ADVANCED_FACE('',(#1132),#1156,.T.);
#1132 = FACE_BOUND('',#1133,.T.);
#1133 = EDGE_LOOP('',(#1134,#1142,#1149,#1155));
#1134 = ORIENTED_EDGE('',*,*,#1135,.T.);
#1135 = EDGE_CURVE('',#1092,#1136,#1138,.T.);
#1136 = VERTEX_POINT('',#1137);
#1137 = CARTESIAN_POINT('',(-115.,47.,-2.553512956638E-14));
#1138 = LINE('',#1139,#1140);
#1139 = CARTESIAN_POINT('',(-118.5,47.,-2.631228568362E-14));
#1140 = VECTOR('',#1141,1.);
#1141 = DIRECTION('',(1.,-2.22044604925E-16,2.22044604925E-16));
#1142 = ORIENTED_EDGE('',*,*,#1143,.T.);
#1143 = EDGE_CURVE('',#1136,#1144,#1146,.T.);
#1144 = VERTEX_POINT('',#1145);
#1145 = CARTESIAN_POINT('',(-121.,40.,120.));
#1146 = B_SPLINE_CURVE_WITH_KNOTS('',1,(#1147,#1148),.UNSPECIFIED.,.F.,
  .F.,(2,2),(0.,1.),.PIECEWISE_BEZIER_KNOTS.);
#1147 = CARTESIAN_POINT('',(-115.,47.,-2.553512956638E-14));
#1148 = CARTESIAN_POINT('',(-121.,40.,120.));
#1149 = ORIENTED_EDGE('',*,*,#1150,.F.);
#1150 = EDGE_CURVE('',#1101,#1144,#1151,.T.);
#1151 = LINE('',#1152,#1153);
#1152 = CARTESIAN_POINT('',(-127.5,40.,120.));
#1153 = VECTOR('',#1154,1.);
#1154 = DIRECTION('',(1.,-2.22044604925E-16,2.22044604925E-16));
#1155 = ORIENTED_EDGE('',*,*,#1100,.F.);
#1156 = B_SPLINE_SURFACE_WITH_KNOTS('',1,1,(
    (#1157,#1158)
    ,(#1159,#1160
    )),.UNSPECIFIED.,.F.,.F.,.F.,(2,2),(2,2),(0.,6.5),(0.,1.),
  .PIECEWISE_BEZIER_KNOTS.);
#1157 = CARTESIAN_POINT('',(-118.5,47.,-2.631228568362E-14));
#1158 = CARTESIAN_POINT('',(-127.5,40.,120.));
#1159 = CARTESIAN_POINT('',(-115.,47.,-2.553512956638E-14));
#1160 = CARTESIAN_POINT('',(-121.,40.,120.));
#1161 = ADVANCED_FACE('',(#1162),#1188,.T.);
#1162 = FACE_BOUND('',#1163,.T.);
#1163 = EDGE_LOOP('',(#1164,#1173,#1180,#1187));
#1164 = ORIENTED_EDGE('',*,*,#1165,.T.);
#1165 = EDGE_CURVE('',#1136,#1166,#1168,.T.);
#1166 = VERTEX_POINT('',#1167);
#1167 = CARTESIAN_POINT('',(-102.,34.,-2.264854970235E-14));
#1168 = CIRCLE('',#1169,13.);
#1169 = AXIS2_PLACEMENT_3D('',#1170,#1171,#1172);
#1170 = CARTESIAN_POINT('',(-115.,34.,-2.553512956638E-14));
#1171 = DIRECTION('',(2.22044604925E-16,-2.465190328816E-32,-1.));
#1172 = DIRECTION('',(-1.,2.22044604925E-16,-2.22044604925E-16));
#1173 = ORIENTED_EDGE('',*,*,#1174,.T.);
#1174 = EDGE_CURVE('',#1166,#1175,#1177,.T.);
#1175 = VERTEX_POINT('',#1176);
#1176 = CARTESIAN_POINT('',(-110.,29.,120.));
#1177 = B_SPLINE_CURVE_WITH_KNOTS('',1,(#1178,#1179),.UNSPECIFIED.,.F.,
  .F.,(2,2),(0.,1.),.PIECEWISE_BEZIER_KNOTS.);
#1178 = CARTESIAN_POINT('',(-102.,34.,-2.264854970235E-14));
#1179 = CARTESIAN_POINT('',(-110.,29.,120.));
#1180 = ORIENTED_EDGE('',*,*,#1181,.F.);
#1181 = EDGE_CURVE('',#1144,#1175,#1182,.T.);
#1182 = CIRCLE('',#1183,11.);
#1183 = AXIS2_PLACEMENT_3D('',#1184,#1185,#1186);
#1184 = CARTESIAN_POINT('',(-121.,29.,120.));
#1185 = DIRECTION('',(2.22044604925E-16,-2.465190328816E-32,-1.));
#1186 = DIRECTION('',(-1.,2.22044604925E-16,-2.22044604925E-16));
#1187 = ORIENTED_EDGE('',*,*,#1143,.F.);
#1188 = B_SPLINE_SURFACE_WITH_KNOTS('',8,1,(
    (#1189,#1190)
    ,(#1191,#1192)
    ,(#1193,#1194)
    ,(#1195,#1196)
    ,(#1197,#1198)
    ,(#1199,#1200)
    ,(#1201,#1202)
    ,(#1203,#1204)
    ,(#1205,#1206
    )),.UNSPECIFIED.,.F.,.F.,.F.,(9,9),(2,2),(1.570796326795,
    3.14159265359),(0.,1.),.PIECEWISE_BEZIER_KNOTS.);
#1189 = CARTESIAN_POINT('',(-115.,47.,-2.553512956638E-14));
#1190 = CARTESIAN_POINT('',(-121.,40.,120.));
#1191 = CARTESIAN_POINT('',(-112.4474559689,47.000000000001,
    -2.496835093545E-14));
#1192 = CARTESIAN_POINT('',(-118.8401550506,40.,120.));
#1193 = CARTESIAN_POINT('',(-109.8949111344,46.427209743502,
    -2.440157212612E-14));
#1194 = CARTESIAN_POINT('',(-116.6803094214,39.515331321426,
    119.99999999999));
#1195 = CARTESIAN_POINT('',(-107.4923279536,45.281634856333,
    -2.386809149294E-14));
#1196 = CARTESIAN_POINT('',(-114.6473544223,38.545998724587,120.));
#1197 = CARTESIAN_POINT('',(-105.3896361748,43.610363825134,
    -2.340120012764E-14));
#1198 = CARTESIAN_POINT('',(-112.8681536864,37.131846313578,
    119.99999999999));
#1199 = CARTESIAN_POINT('',(-103.7183651436,41.507672046359,
    -2.30301034118E-14));
#1200 = CARTESIAN_POINT('',(-111.4540012754,35.352645577686,120.));
#1201 = CARTESIAN_POINT('',(-102.5727902564,39.105088865553,
    -2.277573468856E-14));
#1202 = CARTESIAN_POINT('',(-110.4846686785,33.319690578546,
    119.99999999999));
#1203 = CARTESIAN_POINT('',(-102.,36.552544031042,-2.264854970235E-14));
#1204 = CARTESIAN_POINT('',(-110.,31.159844949343,120.));
#1205 = CARTESIAN_POINT('',(-102.,34.,-2.264854970235E-14));
#1206 = CARTESIAN_POINT('',(-110.,29.,120.));
#1207 = ADVANCED_FACE('',(#1208),#1232,.T.);
#1208 = FACE_BOUND('',#1209,.T.);
#1209 = EDGE_LOOP('',(#1210,#1218,#1225,#1231));
#1210 = ORIENTED_EDGE('',*,*,#1211,.T.);
#1211 = EDGE_CURVE('',#1166,#1212,#1214,.T.);
#1212 = VERTEX_POINT('',#1213);
#1213 = CARTESIAN_POINT('',(-102.,0.,-2.264854970235E-14));
#1214 = LINE('',#1215,#1216);
#1215 = CARTESIAN_POINT('',(-102.,34.,-2.264854970235E-14));
#1216 = VECTOR('',#1217,1.);
#1217 = DIRECTION('',(-2.22044604925E-16,-1.,-2.465190328816E-32));
#1218 = ORIENTED_EDGE('',*,*,#1219,.T.);
#1219 = EDGE_CURVE('',#1212,#1220,#1222,.T.);
#1220 = VERTEX_POINT('',#1221);
#1221 = CARTESIAN_POINT('',(-110.,0.,120.));
#1222 = B_SPLINE_CURVE_WITH_KNOTS('',1,(#1223,#1224),.UNSPECIFIED.,.F.,
  .F.,(2,2),(0.,1.),.PIECEWISE_BEZIER_KNOTS.);
#1223 = CARTESIAN_POINT('',(-102.,2.264854970235E-14,-2.264854970235E-14
    ));
#1224 = CARTESIAN_POINT('',(-110.,2.442490654175E-14,120.));
#1225 = ORIENTED_EDGE('',*,*,#1226,.F.);
#1226 = EDGE_CURVE('',#1175,#1220,#1227,.T.);
#1227 = LINE('',#1228,#1229);
#1228 = CARTESIAN_POINT('',(-110.,29.,120.));
#1229 = VECTOR('',#1230,1.);
#1230 = DIRECTION('',(-2.22044604925E-16,-1.,-2.465190328816E-32));
#1231 = ORIENTED_EDGE('',*,*,#1174,.F.);
#1232 = B_SPLINE_SURFACE_WITH_KNOTS('',1,1,(
    (#1233,#1234)
    ,(#1235,#1236
    )),.UNSPECIFIED.,.F.,.F.,.F.,(2,2),(2,2),(0.,34.),(0.,1.),
  .PIECEWISE_BEZIER_KNOTS.);
#1233 = CARTESIAN_POINT('',(-102.,34.,-2.264854970235E-14));
#1234 = CARTESIAN_POINT('',(-110.,29.,120.));
#1235 = CARTESIAN_POINT('',(-102.,2.264854970235E-14,-2.264854970235E-14
    ));
#1236 = CARTESIAN_POINT('',(-110.,2.442490654175E-14,120.));
#1237 = ADVANCED_FACE('',(#1238),#1262,.F.);
#1238 = FACE_BOUND('',#1239,.F.);
#1239 = EDGE_LOOP('',(#1240,#1248,#1255,#1261));
#1240 = ORIENTED_EDGE('',*,*,#1241,.T.);
#1241 = EDGE_CURVE('',#540,#1242,#1244,.T.);
#1242 = VERTEX_POINT('',#1243);
#1243 = CARTESIAN_POINT('',(-89.,-73.5,-1.976196983833E-14));
#1244 = LINE('',#1245,#1246);
#1245 = CARTESIAN_POINT('',(1.632027846199E-14,-73.5,1.81191489168E-30)
  );
#1246 = VECTOR('',#1247,1.);
#1247 = DIRECTION('',(-1.,-2.22044604925E-16,-2.22044604925E-16));
#1248 = ORIENTED_EDGE('',*,*,#1249,.T.);
#1249 = EDGE_CURVE('',#1242,#1250,#1252,.T.);
#1250 = VERTEX_POINT('',#1251);
#1251 = CARTESIAN_POINT('',(-80.,-82.,120.));
#1252 = B_SPLINE_CURVE_WITH_KNOTS('',1,(#1253,#1254),.UNSPECIFIED.,.F.,
  .F.,(2,2),(0.,1.),.PIECEWISE_BEZIER_KNOTS.);
#1253 = CARTESIAN_POINT('',(-89.,-73.5,-1.976196983833E-14));
#1254 = CARTESIAN_POINT('',(-80.,-82.,120.));
#1255 = ORIENTED_EDGE('',*,*,#1256,.F.);
#1256 = EDGE_CURVE('',#557,#1250,#1257,.T.);
#1257 = LINE('',#1258,#1259);
#1258 = CARTESIAN_POINT('',(-8.437694987151E-15,-82.,120.));
#1259 = VECTOR('',#1260,1.);
#1260 = DIRECTION('',(-1.,-2.22044604925E-16,-2.22044604925E-16));
#1261 = ORIENTED_EDGE('',*,*,#564,.F.);
#1262 = B_SPLINE_SURFACE_WITH_KNOTS('',1,1,(
    (#1263,#1264)
    ,(#1265,#1266
    )),.UNSPECIFIED.,.F.,.F.,.F.,(2,2),(2,2),(0.,89.),(0.,1.),
  .PIECEWISE_BEZIER_KNOTS.);
#1263 = CARTESIAN_POINT('',(1.632027846199E-14,-73.5,1.81191489168E-30)
  );
#1264 = CARTESIAN_POINT('',(-8.437694987151E-15,-82.,120.));
#1265 = CARTESIAN_POINT('',(-89.,-73.5,-1.976196983833E-14));
#1266 = CARTESIAN_POINT('',(-80.,-82.,120.));
#1267 = ADVANCED_FACE('',(#1268),#1294,.F.);
#1268 = FACE_BOUND('',#1269,.F.);
#1269 = EDGE_LOOP('',(#1270,#1279,#1286,#1293));
#1270 = ORIENTED_EDGE('',*,*,#1271,.T.);
#1271 = EDGE_CURVE('',#1242,#1272,#1274,.T.);
#1272 = VERTEX_POINT('',#1273);
#1273 = CARTESIAN_POINT('',(-90.,-74.5,-1.998401444325E-14));
#1274 = CIRCLE('',#1275,1.);
#1275 = AXIS2_PLACEMENT_3D('',#1276,#1277,#1278);
#1276 = CARTESIAN_POINT('',(-89.,-74.5,-1.976196983833E-14));
#1277 = DIRECTION('',(-2.22044604925E-16,-2.465190328816E-32,1.));
#1278 = DIRECTION('',(-1.,-2.22044604925E-16,-2.22044604925E-16));
#1279 = ORIENTED_EDGE('',*,*,#1280,.T.);
#1280 = EDGE_CURVE('',#1272,#1281,#1283,.T.);
#1281 = VERTEX_POINT('',#1282);
#1282 = CARTESIAN_POINT('',(-81.,-83.,120.));
#1283 = B_SPLINE_CURVE_WITH_KNOTS('',1,(#1284,#1285),.UNSPECIFIED.,.F.,
  .F.,(2,2),(0.,1.),.PIECEWISE_BEZIER_KNOTS.);
#1284 = CARTESIAN_POINT('',(-90.,-74.5,-1.998401444325E-14));
#1285 = CARTESIAN_POINT('',(-81.,-83.,120.));
#1286 = ORIENTED_EDGE('',*,*,#1287,.F.);
#1287 = EDGE_CURVE('',#1250,#1281,#1288,.T.);
#1288 = CIRCLE('',#1289,1.);
#1289 = AXIS2_PLACEMENT_3D('',#1290,#1291,#1292);
#1290 = CARTESIAN_POINT('',(-80.,-83.,120.));
#1291 = DIRECTION('',(-2.22044604925E-16,-2.465190328816E-32,1.));
#1292 = DIRECTION('',(-1.,-2.22044604925E-16,-2.22044604925E-16));
#1293 = ORIENTED_EDGE('',*,*,#1249,.F.);
#1294 = B_SPLINE_SURFACE_WITH_KNOTS('',7,1,(
    (#1295,#1296)
    ,(#1297,#1298)
    ,(#1299,#1300)
    ,(#1301,#1302)
    ,(#1303,#1304)
    ,(#1305,#1306)
    ,(#1307,#1308)
    ,(#1309,#1310
    )),.UNSPECIFIED.,.F.,.F.,.F.,(8,8),(2,2),(4.712388980385,
    6.28318530718),(0.,1.),.PIECEWISE_BEZIER_KNOTS.);
#1295 = CARTESIAN_POINT('',(-89.,-73.5,-1.976196983833E-14));
#1296 = CARTESIAN_POINT('',(-80.,-82.,120.));
#1297 = CARTESIAN_POINT('',(-89.22439947525,-73.5,-1.981179653116E-14));
#1298 = CARTESIAN_POINT('',(-80.22439947525,-82.,120.));
#1299 = CARTESIAN_POINT('',(-89.44879786498,-73.55874888655,
    -1.986162298295E-14));
#1300 = CARTESIAN_POINT('',(-80.44879786498,-82.05874888655,120.));
#1301 = CARTESIAN_POINT('',(-89.65474694082,-73.67623727779,
    -1.990735286413E-14));
#1302 = CARTESIAN_POINT('',(-80.65474694082,-82.17623727779,
    119.99999999999));
#1303 = CARTESIAN_POINT('',(-89.8237627222,-73.84525305917,
    -1.994488190653E-14));
#1304 = CARTESIAN_POINT('',(-80.8237627222,-82.34525305917,120.));
#1305 = CARTESIAN_POINT('',(-89.94125111344,-74.05120213501,
    -1.997096956995E-14));
#1306 = CARTESIAN_POINT('',(-80.94125111344,-82.55120213501,
    119.99999999999));
#1307 = CARTESIAN_POINT('',(-90.,-74.27560052474,-1.998401444325E-14));
#1308 = CARTESIAN_POINT('',(-81.,-82.77560052474,120.));
#1309 = CARTESIAN_POINT('',(-90.,-74.5,-1.998401444325E-14));
#1310 = CARTESIAN_POINT('',(-81.,-83.,120.));
#1311 = ADVANCED_FACE('',(#1312),#1336,.F.);
#1312 = FACE_BOUND('',#1313,.F.);
#1313 = EDGE_LOOP('',(#1314,#1322,#1329,#1335));
#1314 = ORIENTED_EDGE('',*,*,#1315,.T.);
#1315 = EDGE_CURVE('',#1272,#1316,#1318,.T.);
#1316 = VERTEX_POINT('',#1317);
#1317 = CARTESIAN_POINT('',(-90.,-75.5,-1.998401444325E-14));
#1318 = LINE('',#1319,#1320);
#1319 = CARTESIAN_POINT('',(-90.,-74.5,-1.998401444325E-14));
#1320 = VECTOR('',#1321,1.);
#1321 = DIRECTION('',(2.22044604925E-16,-1.,2.465190328816E-32));
#1322 = ORIENTED_EDGE('',*,*,#1323,.T.);
#1323 = EDGE_CURVE('',#1316,#1324,#1326,.T.);
#1324 = VERTEX_POINT('',#1325);
#1325 = CARTESIAN_POINT('',(-81.,-84.5,120.));
#1326 = B_SPLINE_CURVE_WITH_KNOTS('',1,(#1327,#1328),.UNSPECIFIED.,.F.,
  .F.,(2,2),(0.,1.),.PIECEWISE_BEZIER_KNOTS.);
#1327 = CARTESIAN_POINT('',(-90.,-75.5,-1.998401444325E-14));
#1328 = CARTESIAN_POINT('',(-81.,-84.5,120.));
#1329 = ORIENTED_EDGE('',*,*,#1330,.F.);
#1330 = EDGE_CURVE('',#1281,#1324,#1331,.T.);
#1331 = LINE('',#1332,#1333);
#1332 = CARTESIAN_POINT('',(-81.,-83.,120.));
#1333 = VECTOR('',#1334,1.);
#1334 = DIRECTION('',(2.22044604925E-16,-1.,2.465190328816E-32));
#1335 = ORIENTED_EDGE('',*,*,#1280,.F.);
#1336 = B_SPLINE_SURFACE_WITH_KNOTS('',1,1,(
    (#1337,#1338)
    ,(#1339,#1340
    )),.UNSPECIFIED.,.F.,.F.,.F.,(2,2),(2,2),(0.,1.5),(0.,1.),
  .PIECEWISE_BEZIER_KNOTS.);
#1337 = CARTESIAN_POINT('',(-90.,-74.5,-1.998401444325E-14));
#1338 = CARTESIAN_POINT('',(-81.,-83.,120.));
#1339 = CARTESIAN_POINT('',(-90.,-75.5,-1.998401444325E-14));
#1340 = CARTESIAN_POINT('',(-81.,-84.5,120.));
#1341 = ADVANCED_FACE('',(#1342),#1368,.F.);
#1342 = FACE_BOUND('',#1343,.F.);
#1343 = EDGE_LOOP('',(#1344,#1353,#1360,#1367));
#1344 = ORIENTED_EDGE('',*,*,#1345,.F.);
#1345 = EDGE_CURVE('',#1346,#1316,#1348,.T.);
#1346 = VERTEX_POINT('',#1347);
#1347 = CARTESIAN_POINT('',(-90.5,-76.,-2.009503674572E-14));
#1348 = CIRCLE('',#1349,0.5);
#1349 = AXIS2_PLACEMENT_3D('',#1350,#1351,#1352);
#1350 = CARTESIAN_POINT('',(-90.5,-75.5,-2.009503674572E-14));
#1351 = DIRECTION('',(-2.22044604925E-16,-2.465190328816E-32,1.));
#1352 = DIRECTION('',(-1.,-2.22044604925E-16,-2.22044604925E-16));
#1353 = ORIENTED_EDGE('',*,*,#1354,.T.);
#1354 = EDGE_CURVE('',#1346,#1355,#1357,.T.);
#1355 = VERTEX_POINT('',#1356);
#1356 = CARTESIAN_POINT('',(-81.5,-85.,120.));
#1357 = B_SPLINE_CURVE_WITH_KNOTS('',1,(#1358,#1359),.UNSPECIFIED.,.F.,
  .F.,(2,2),(0.,1.),.PIECEWISE_BEZIER_KNOTS.);
#1358 = CARTESIAN_POINT('',(-90.5,-76.,-2.009503674572E-14));
#1359 = CARTESIAN_POINT('',(-81.5,-85.,120.));
#1360 = ORIENTED_EDGE('',*,*,#1361,.T.);
#1361 = EDGE_CURVE('',#1355,#1324,#1362,.T.);
#1362 = CIRCLE('',#1363,0.5);
#1363 = AXIS2_PLACEMENT_3D('',#1364,#1365,#1366);
#1364 = CARTESIAN_POINT('',(-81.5,-84.5,120.));
#1365 = DIRECTION('',(-2.22044604925E-16,-2.465190328816E-32,1.));
#1366 = DIRECTION('',(-1.,-2.22044604925E-16,-2.22044604925E-16));
#1367 = ORIENTED_EDGE('',*,*,#1323,.F.);
#1368 = B_SPLINE_SURFACE_WITH_KNOTS('',7,1,(
    (#1369,#1370)
    ,(#1371,#1372)
    ,(#1373,#1374)
    ,(#1375,#1376)
    ,(#1377,#1378)
    ,(#1379,#1380)
    ,(#1381,#1382)
    ,(#1383,#1384
    )),.UNSPECIFIED.,.F.,.F.,.F.,(8,8),(2,2),(3.14159265359,
    4.712388980385),(0.,1.),.PIECEWISE_BEZIER_KNOTS.);
#1369 = CARTESIAN_POINT('',(-90.,-75.5,-1.998401444325E-14));
#1370 = CARTESIAN_POINT('',(-81.,-84.5,120.));
#1371 = CARTESIAN_POINT('',(-90.,-75.61219973762,-1.998401444325E-14));
#1372 = CARTESIAN_POINT('',(-81.,-84.61219973762,120.));
#1373 = CARTESIAN_POINT('',(-90.02937444327,-75.72439893249,
    -1.99905368799E-14));
#1374 = CARTESIAN_POINT('',(-81.02937444327,-84.72439893249,120.));
#1375 = CARTESIAN_POINT('',(-90.0881186389,-75.82737347041,
    -2.000358071161E-14));
#1376 = CARTESIAN_POINT('',(-81.08811863889,-84.82737347041,120.));
#1377 = CARTESIAN_POINT('',(-90.17262652958,-75.9118813611,
    -2.002234523281E-14));
#1378 = CARTESIAN_POINT('',(-81.17262652958,-84.9118813611,120.));
#1379 = CARTESIAN_POINT('',(-90.27560106751,-75.97062555672,
    -2.004521017341E-14));
#1380 = CARTESIAN_POINT('',(-81.2756010675,-84.97062555672,120.));
#1381 = CARTESIAN_POINT('',(-90.38780026237,-76.,-2.00701233993E-14));
#1382 = CARTESIAN_POINT('',(-81.38780026237,-85.,120.));
#1383 = CARTESIAN_POINT('',(-90.5,-76.,-2.009503674572E-14));
#1384 = CARTESIAN_POINT('',(-81.5,-85.,120.));
#1385 = ADVANCED_FACE('',(#1386),#1410,.F.);
#1386 = FACE_BOUND('',#1387,.F.);
#1387 = EDGE_LOOP('',(#1388,#1396,#1403,#1409));
#1388 = ORIENTED_EDGE('',*,*,#1389,.T.);
#1389 = EDGE_CURVE('',#1346,#1390,#1392,.T.);
#1390 = VERTEX_POINT('',#1391);
#1391 = CARTESIAN_POINT('',(-102.,-76.,-2.264854970235E-14));
#1392 = LINE('',#1393,#1394);
#1393 = CARTESIAN_POINT('',(-90.5,-76.,-2.009503674572E-14));
#1394 = VECTOR('',#1395,1.);
#1395 = DIRECTION('',(-1.,-2.22044604925E-16,-2.22044604925E-16));
#1396 = ORIENTED_EDGE('',*,*,#1397,.T.);
#1397 = EDGE_CURVE('',#1390,#1398,#1400,.T.);
#1398 = VERTEX_POINT('',#1399);
#1399 = CARTESIAN_POINT('',(-109.,-85.,120.));
#1400 = B_SPLINE_CURVE_WITH_KNOTS('',1,(#1401,#1402),.UNSPECIFIED.,.F.,
  .F.,(2,2),(0.,1.),.PIECEWISE_BEZIER_KNOTS.);
#1401 = CARTESIAN_POINT('',(-102.,-76.,-2.264854970235E-14));
#1402 = CARTESIAN_POINT('',(-109.,-85.,120.));
#1403 = ORIENTED_EDGE('',*,*,#1404,.F.);
#1404 = EDGE_CURVE('',#1355,#1398,#1405,.T.);
#1405 = LINE('',#1406,#1407);
#1406 = CARTESIAN_POINT('',(-81.5,-85.,120.));
#1407 = VECTOR('',#1408,1.);
#1408 = DIRECTION('',(-1.,-2.22044604925E-16,-2.22044604925E-16));
#1409 = ORIENTED_EDGE('',*,*,#1354,.F.);
#1410 = B_SPLINE_SURFACE_WITH_KNOTS('',1,1,(
    (#1411,#1412)
    ,(#1413,#1414
    )),.UNSPECIFIED.,.F.,.F.,.F.,(2,2),(2,2),(0.,27.5),(0.,1.),
  .PIECEWISE_BEZIER_KNOTS.);
#1411 = CARTESIAN_POINT('',(-90.5,-76.,-2.009503674572E-14));
#1412 = CARTESIAN_POINT('',(-81.5,-85.,120.));
#1413 = CARTESIAN_POINT('',(-102.,-76.,-2.264854970235E-14));
#1414 = CARTESIAN_POINT('',(-109.,-85.,120.));
#1415 = ADVANCED_FACE('',(#1416),#1442,.F.);
#1416 = FACE_BOUND('',#1417,.F.);
#1417 = EDGE_LOOP('',(#1418,#1427,#1434,#1441));
#1418 = ORIENTED_EDGE('',*,*,#1419,.F.);
#1419 = EDGE_CURVE('',#1420,#1390,#1422,.T.);
#1420 = VERTEX_POINT('',#1421);
#1421 = CARTESIAN_POINT('',(-119.,-59.,-2.642330798608E-14));
#1422 = CIRCLE('',#1423,17.);
#1423 = AXIS2_PLACEMENT_3D('',#1424,#1425,#1426);
#1424 = CARTESIAN_POINT('',(-102.,-59.,-2.264854970235E-14));
#1425 = DIRECTION('',(-2.22044604925E-16,-2.465190328816E-32,1.));
#1426 = DIRECTION('',(-1.,-2.22044604925E-16,-2.22044604925E-16));
#1427 = ORIENTED_EDGE('',*,*,#1428,.T.);
#1428 = EDGE_CURVE('',#1420,#1429,#1431,.T.);
#1429 = VERTEX_POINT('',#1430);
#1430 = CARTESIAN_POINT('',(-128.,-66.,120.));
#1431 = B_SPLINE_CURVE_WITH_KNOTS('',1,(#1432,#1433),.UNSPECIFIED.,.F.,
  .F.,(2,2),(0.,1.),.PIECEWISE_BEZIER_KNOTS.);
#1432 = CARTESIAN_POINT('',(-119.,-59.,-2.642330798608E-14));
#1433 = CARTESIAN_POINT('',(-128.,-66.,120.));
#1434 = ORIENTED_EDGE('',*,*,#1435,.T.);
#1435 = EDGE_CURVE('',#1429,#1398,#1436,.T.);
#1436 = CIRCLE('',#1437,19.);
#1437 = AXIS2_PLACEMENT_3D('',#1438,#1439,#1440);
#1438 = CARTESIAN_POINT('',(-109.,-66.,120.));
#1439 = DIRECTION('',(-2.22044604925E-16,-2.465190328816E-32,1.));
#1440 = DIRECTION('',(-1.,-2.22044604925E-16,-2.22044604925E-16));
#1441 = ORIENTED_EDGE('',*,*,#1397,.F.);
#1442 = B_SPLINE_SURFACE_WITH_KNOTS('',8,1,(
    (#1443,#1444)
    ,(#1445,#1446)
    ,(#1447,#1448)
    ,(#1449,#1450)
    ,(#1451,#1452)
    ,(#1453,#1454)
    ,(#1455,#1456)
    ,(#1457,#1458)
    ,(#1459,#1460
    )),.UNSPECIFIED.,.F.,.F.,.F.,(9,9),(2,2),(4.712388980385,
    6.28318530718),(0.,1.),.PIECEWISE_BEZIER_KNOTS.);
#1443 = CARTESIAN_POINT('',(-102.,-76.,-2.264854970235E-14));
#1444 = CARTESIAN_POINT('',(-109.,-85.,120.));
#1445 = CARTESIAN_POINT('',(-105.3379421944,-75.99999999999,
    -2.338972175818E-14));
#1446 = CARTESIAN_POINT('',(-112.7306412761,-84.99999999999,
    119.99999999999));
#1447 = CARTESIAN_POINT('',(-108.6758854395,-75.25096658766,
    -2.413089404731E-14));
#1448 = CARTESIAN_POINT('',(-116.4612837265,-84.16284500974,120.));
#1449 = CARTESIAN_POINT('',(-111.8177249836,-73.75290711981,
    -2.482852256762E-14));
#1450 = CARTESIAN_POINT('',(-119.9727514523,-82.48854325155,
    119.99999999999));
#1451 = CARTESIAN_POINT('',(-114.5673988482,-71.56739884826,
    -2.543907281455E-14));
#1452 = CARTESIAN_POINT('',(-123.0459163598,-80.04591635982,120.));
#1453 = CARTESIAN_POINT('',(-116.7529071198,-68.81772498369,
    -2.592435313527E-14));
#1454 = CARTESIAN_POINT('',(-125.4885432515,-76.97275145236,
    119.99999999999));
#1455 = CARTESIAN_POINT('',(-118.2509665876,-65.67588543957,
    -2.625698915796E-14));
#1456 = CARTESIAN_POINT('',(-127.1628450097,-73.46128372658,120.));
#1457 = CARTESIAN_POINT('',(-118.9999999999,-62.33794219443,
    -2.642330798608E-14));
#1458 = CARTESIAN_POINT('',(-127.9999999999,-69.73064127613,
    119.99999999999));
#1459 = CARTESIAN_POINT('',(-119.,-59.,-2.642330798608E-14));
#1460 = CARTESIAN_POINT('',(-128.,-66.,120.));
#1461 = ADVANCED_FACE('',(#1462),#1486,.F.);
#1462 = FACE_BOUND('',#1463,.F.);
#1463 = EDGE_LOOP('',(#1464,#1472,#1479,#1485));
#1464 = ORIENTED_EDGE('',*,*,#1465,.T.);
#1465 = EDGE_CURVE('',#1420,#1466,#1468,.T.);
#1466 = VERTEX_POINT('',#1467);
#1467 = CARTESIAN_POINT('',(-119.,-47.5,-2.642330798608E-14));
#1468 = LINE('',#1469,#1470);
#1469 = CARTESIAN_POINT('',(-119.,-59.,-2.642330798608E-14));
#1470 = VECTOR('',#1471,1.);
#1471 = DIRECTION('',(-2.22044604925E-16,1.,-2.465190328816E-32));
#1472 = ORIENTED_EDGE('',*,*,#1473,.T.);
#1473 = EDGE_CURVE('',#1466,#1474,#1476,.T.);
#1474 = VERTEX_POINT('',#1475);
#1475 = CARTESIAN_POINT('',(-128.,-40.5,120.));
#1476 = B_SPLINE_CURVE_WITH_KNOTS('',1,(#1477,#1478),.UNSPECIFIED.,.F.,
  .F.,(2,2),(0.,1.),.PIECEWISE_BEZIER_KNOTS.);
#1477 = CARTESIAN_POINT('',(-119.,-47.5,-2.642330798608E-14));
#1478 = CARTESIAN_POINT('',(-128.,-40.5,120.));
#1479 = ORIENTED_EDGE('',*,*,#1480,.F.);
#1480 = EDGE_CURVE('',#1429,#1474,#1481,.T.);
#1481 = LINE('',#1482,#1483);
#1482 = CARTESIAN_POINT('',(-128.,-66.,120.));
#1483 = VECTOR('',#1484,1.);
#1484 = DIRECTION('',(-2.22044604925E-16,1.,-2.465190328816E-32));
#1485 = ORIENTED_EDGE('',*,*,#1428,.F.);
#1486 = B_SPLINE_SURFACE_WITH_KNOTS('',1,1,(
    (#1487,#1488)
    ,(#1489,#1490
    )),.UNSPECIFIED.,.F.,.F.,.F.,(2,2),(2,2),(0.,25.5),(0.,1.),
  .PIECEWISE_BEZIER_KNOTS.);
#1487 = CARTESIAN_POINT('',(-119.,-59.,-2.642330798608E-14));
#1488 = CARTESIAN_POINT('',(-128.,-66.,120.));
#1489 = CARTESIAN_POINT('',(-119.,-47.5,-2.642330798608E-14));
#1490 = CARTESIAN_POINT('',(-128.,-40.5,120.));
#1491 = ADVANCED_FACE('',(#1492),#1518,.F.);
#1492 = FACE_BOUND('',#1493,.F.);
#1493 = EDGE_LOOP('',(#1494,#1503,#1510,#1517));
#1494 = ORIENTED_EDGE('',*,*,#1495,.F.);
#1495 = EDGE_CURVE('',#1496,#1466,#1498,.T.);
#1496 = VERTEX_POINT('',#1497);
#1497 = CARTESIAN_POINT('',(-118.5,-47.,-2.631228568362E-14));
#1498 = CIRCLE('',#1499,0.5);
#1499 = AXIS2_PLACEMENT_3D('',#1500,#1501,#1502);
#1500 = CARTESIAN_POINT('',(-118.5,-47.5,-2.631228568362E-14));
#1501 = DIRECTION('',(-2.22044604925E-16,-2.465190328816E-32,1.));
#1502 = DIRECTION('',(-1.,-2.22044604925E-16,-2.22044604925E-16));
#1503 = ORIENTED_EDGE('',*,*,#1504,.T.);
#1504 = EDGE_CURVE('',#1496,#1505,#1507,.T.);
#1505 = VERTEX_POINT('',#1506);
#1506 = CARTESIAN_POINT('',(-127.5,-40.,120.));
#1507 = B_SPLINE_CURVE_WITH_KNOTS('',1,(#1508,#1509),.UNSPECIFIED.,.F.,
  .F.,(2,2),(0.,1.),.PIECEWISE_BEZIER_KNOTS.);
#1508 = CARTESIAN_POINT('',(-118.5,-47.,-2.631228568362E-14));
#1509 = CARTESIAN_POINT('',(-127.5,-40.,120.));
#1510 = ORIENTED_EDGE('',*,*,#1511,.T.);
#1511 = EDGE_CURVE('',#1505,#1474,#1512,.T.);
#1512 = CIRCLE('',#1513,0.5);
#1513 = AXIS2_PLACEMENT_3D('',#1514,#1515,#1516);
#1514 = CARTESIAN_POINT('',(-127.5,-40.5,120.));
#1515 = DIRECTION('',(-2.22044604925E-16,-2.465190328816E-32,1.));
#1516 = DIRECTION('',(-1.,-2.22044604925E-16,-2.22044604925E-16));
#1517 = ORIENTED_EDGE('',*,*,#1473,.F.);
#1518 = B_SPLINE_SURFACE_WITH_KNOTS('',7,1,(
    (#1519,#1520)
    ,(#1521,#1522)
    ,(#1523,#1524)
    ,(#1525,#1526)
    ,(#1527,#1528)
    ,(#1529,#1530)
    ,(#1531,#1532)
    ,(#1533,#1534
    )),.UNSPECIFIED.,.F.,.F.,.F.,(8,8),(2,2),(0.,1.570796326795),(0.,1.)
  ,.PIECEWISE_BEZIER_KNOTS.);
#1519 = CARTESIAN_POINT('',(-119.,-47.5,-2.642330798608E-14));
#1520 = CARTESIAN_POINT('',(-128.,-40.5,120.));
#1521 = CARTESIAN_POINT('',(-119.,-47.38780026237,-2.642330798608E-14));
#1522 = CARTESIAN_POINT('',(-128.,-40.38780026237,120.));
#1523 = CARTESIAN_POINT('',(-118.9706255567,-47.2756010675,
    -2.641678554943E-14));
#1524 = CARTESIAN_POINT('',(-127.9706255567,-40.2756010675,
    119.99999999999));
#1525 = CARTESIAN_POINT('',(-118.9118813611,-47.17262652959,
    -2.640374171772E-14));
#1526 = CARTESIAN_POINT('',(-127.9118813611,-40.17262652959,120.));
#1527 = CARTESIAN_POINT('',(-118.8273734704,-47.08811863889,
    -2.638497719652E-14));
#1528 = CARTESIAN_POINT('',(-127.8273734704,-40.08811863889,
    119.99999999999));
#1529 = CARTESIAN_POINT('',(-118.7243989324,-47.02937444327,
    -2.636211225593E-14));
#1530 = CARTESIAN_POINT('',(-127.7243989324,-40.02937444327,120.));
#1531 = CARTESIAN_POINT('',(-118.6121997376,-47.,-2.633719903003E-14));
#1532 = CARTESIAN_POINT('',(-127.6121997376,-40.,120.));
#1533 = CARTESIAN_POINT('',(-118.5,-47.,-2.631228568362E-14));
#1534 = CARTESIAN_POINT('',(-127.5,-40.,120.));
#1535 = ADVANCED_FACE('',(#1536),#1560,.F.);
#1536 = FACE_BOUND('',#1537,.F.);
#1537 = EDGE_LOOP('',(#1538,#1546,#1553,#1559));
#1538 = ORIENTED_EDGE('',*,*,#1539,.T.);
#1539 = EDGE_CURVE('',#1496,#1540,#1542,.T.);
#1540 = VERTEX_POINT('',#1541);
#1541 = CARTESIAN_POINT('',(-115.,-47.,-2.553512956638E-14));
#1542 = LINE('',#1543,#1544);
#1543 = CARTESIAN_POINT('',(-118.5,-47.,-2.631228568362E-14));
#1544 = VECTOR('',#1545,1.);
#1545 = DIRECTION('',(1.,2.22044604925E-16,2.22044604925E-16));
#1546 = ORIENTED_EDGE('',*,*,#1547,.T.);
#1547 = EDGE_CURVE('',#1540,#1548,#1550,.T.);
#1548 = VERTEX_POINT('',#1549);
#1549 = CARTESIAN_POINT('',(-121.,-40.,120.));
#1550 = B_SPLINE_CURVE_WITH_KNOTS('',1,(#1551,#1552),.UNSPECIFIED.,.F.,
  .F.,(2,2),(0.,1.),.PIECEWISE_BEZIER_KNOTS.);
#1551 = CARTESIAN_POINT('',(-115.,-47.,-2.553512956638E-14));
#1552 = CARTESIAN_POINT('',(-121.,-40.,120.));
#1553 = ORIENTED_EDGE('',*,*,#1554,.F.);
#1554 = EDGE_CURVE('',#1505,#1548,#1555,.T.);
#1555 = LINE('',#1556,#1557);
#1556 = CARTESIAN_POINT('',(-127.5,-40.,120.));
#1557 = VECTOR('',#1558,1.);
#1558 = DIRECTION('',(1.,2.22044604925E-16,2.22044604925E-16));
#1559 = ORIENTED_EDGE('',*,*,#1504,.F.);
#1560 = B_SPLINE_SURFACE_WITH_KNOTS('',1,1,(
    (#1561,#1562)
    ,(#1563,#1564
    )),.UNSPECIFIED.,.F.,.F.,.F.,(2,2),(2,2),(0.,6.5),(0.,1.),
  .PIECEWISE_BEZIER_KNOTS.);
#1561 = CARTESIAN_POINT('',(-118.5,-47.,-2.631228568362E-14));
#1562 = CARTESIAN_POINT('',(-127.5,-40.,120.));
#1563 = CARTESIAN_POINT('',(-115.,-47.,-2.553512956638E-14));
#1564 = CARTESIAN_POINT('',(-121.,-40.,120.));
#1565 = ADVANCED_FACE('',(#1566),#1592,.F.);
#1566 = FACE_BOUND('',#1567,.F.);
#1567 = EDGE_LOOP('',(#1568,#1577,#1584,#1591));
#1568 = ORIENTED_EDGE('',*,*,#1569,.T.);
#1569 = EDGE_CURVE('',#1540,#1570,#1572,.T.);
#1570 = VERTEX_POINT('',#1571);
#1571 = CARTESIAN_POINT('',(-102.,-34.,-2.264854970235E-14));
#1572 = CIRCLE('',#1573,13.);
#1573 = AXIS2_PLACEMENT_3D('',#1574,#1575,#1576);
#1574 = CARTESIAN_POINT('',(-115.,-34.,-2.553512956638E-14));
#1575 = DIRECTION('',(-2.22044604925E-16,-2.465190328816E-32,1.));
#1576 = DIRECTION('',(-1.,-2.22044604925E-16,-2.22044604925E-16));
#1577 = ORIENTED_EDGE('',*,*,#1578,.T.);
#1578 = EDGE_CURVE('',#1570,#1579,#1581,.T.);
#1579 = VERTEX_POINT('',#1580);
#1580 = CARTESIAN_POINT('',(-110.,-29.,120.));
#1581 = B_SPLINE_CURVE_WITH_KNOTS('',1,(#1582,#1583),.UNSPECIFIED.,.F.,
  .F.,(2,2),(0.,1.),.PIECEWISE_BEZIER_KNOTS.);
#1582 = CARTESIAN_POINT('',(-102.,-34.,-2.264854970235E-14));
#1583 = CARTESIAN_POINT('',(-110.,-29.,120.));
#1584 = ORIENTED_EDGE('',*,*,#1585,.F.);
#1585 = EDGE_CURVE('',#1548,#1579,#1586,.T.);
#1586 = CIRCLE('',#1587,11.);
#1587 = AXIS2_PLACEMENT_3D('',#1588,#1589,#1590);
#1588 = CARTESIAN_POINT('',(-121.,-29.,120.));
#1589 = DIRECTION('',(-2.22044604925E-16,-2.465190328816E-32,1.));
#1590 = DIRECTION('',(-1.,-2.22044604925E-16,-2.22044604925E-16));
#1591 = ORIENTED_EDGE('',*,*,#1547,.F.);
#1592 = B_SPLINE_SURFACE_WITH_KNOTS('',8,1,(
    (#1593,#1594)
    ,(#1595,#1596)
    ,(#1597,#1598)
    ,(#1599,#1600)
    ,(#1601,#1602)
    ,(#1603,#1604)
    ,(#1605,#1606)
    ,(#1607,#1608)
    ,(#1609,#1610
    )),.UNSPECIFIED.,.F.,.F.,.F.,(9,9),(2,2),(1.570796326795,
    3.14159265359),(0.,1.),.PIECEWISE_BEZIER_KNOTS.);
#1593 = CARTESIAN_POINT('',(-115.,-47.,-2.553512956638E-14));
#1594 = CARTESIAN_POINT('',(-121.,-40.,120.));
#1595 = CARTESIAN_POINT('',(-112.4474559689,-47.,-2.496835093545E-14));
#1596 = CARTESIAN_POINT('',(-118.8401550506,-40.,120.));
#1597 = CARTESIAN_POINT('',(-109.8949111344,-46.4272097435,
    -2.440157212612E-14));
#1598 = CARTESIAN_POINT('',(-116.6803094214,-39.51533132142,
    119.99999999999));
#1599 = CARTESIAN_POINT('',(-107.4923279536,-45.28163485633,
    -2.386809149294E-14));
#1600 = CARTESIAN_POINT('',(-114.6473544223,-38.54599872458,120.));
#1601 = CARTESIAN_POINT('',(-105.3896361748,-43.61036382513,
    -2.340120012764E-14));
#1602 = CARTESIAN_POINT('',(-112.8681536864,-37.13184631357,
    119.99999999999));
#1603 = CARTESIAN_POINT('',(-103.7183651436,-41.50767204635,
    -2.30301034118E-14));
#1604 = CARTESIAN_POINT('',(-111.4540012754,-35.35264557768,120.));
#1605 = CARTESIAN_POINT('',(-102.5727902564,-39.10508886555,
    -2.277573468856E-14));
#1606 = CARTESIAN_POINT('',(-110.4846686785,-33.31969057854,
    119.99999999999));
#1607 = CARTESIAN_POINT('',(-102.,-36.55254403104,-2.264854970235E-14));
#1608 = CARTESIAN_POINT('',(-110.,-31.15984494934,120.));
#1609 = CARTESIAN_POINT('',(-102.,-34.,-2.264854970235E-14));
#1610 = CARTESIAN_POINT('',(-110.,-29.,120.));
#1611 = ADVANCED_FACE('',(#1612),#1628,.F.);
#1612 = FACE_BOUND('',#1613,.F.);
#1613 = EDGE_LOOP('',(#1614,#1620,#1621,#1627));
#1614 = ORIENTED_EDGE('',*,*,#1615,.T.);
#1615 = EDGE_CURVE('',#1570,#1212,#1616,.T.);
#1616 = LINE('',#1617,#1618);
#1617 = CARTESIAN_POINT('',(-102.,-34.,-2.264854970235E-14));
#1618 = VECTOR('',#1619,1.);
#1619 = DIRECTION('',(-2.22044604925E-16,1.,-2.465190328816E-32));
#1620 = ORIENTED_EDGE('',*,*,#1219,.T.);
#1621 = ORIENTED_EDGE('',*,*,#1622,.F.);
#1622 = EDGE_CURVE('',#1579,#1220,#1623,.T.);
#1623 = LINE('',#1624,#1625);
#1624 = CARTESIAN_POINT('',(-110.,-29.,120.));
#1625 = VECTOR('',#1626,1.);
#1626 = DIRECTION('',(-2.22044604925E-16,1.,-2.465190328816E-32));
#1627 = ORIENTED_EDGE('',*,*,#1578,.F.);
#1628 = B_SPLINE_SURFACE_WITH_KNOTS('',1,1,(
    (#1629,#1630)
    ,(#1631,#1632
    )),.UNSPECIFIED.,.F.,.F.,.F.,(2,2),(2,2),(0.,34.),(0.,1.),
  .PIECEWISE_BEZIER_KNOTS.);
#1629 = CARTESIAN_POINT('',(-102.,-34.,-2.264854970235E-14));
#1630 = CARTESIAN_POINT('',(-110.,-29.,120.));
#1631 = CARTESIAN_POINT('',(-102.,-2.264854970235E-14,
    -2.264854970235E-14));
#1632 = CARTESIAN_POINT('',(-110.,-2.442490654175E-14,120.));
#1633 = ADVANCED_FACE('',(#1634),#1680,.T.);
#1634 = FACE_BOUND('',#1635,.T.);
#1635 = EDGE_LOOP('',(#1636,#1637,#1638,#1639,#1640,#1641,#1642,#1643,
    #1644,#1645,#1646,#1647,#1648,#1649,#1650,#1651,#1652,#1653,#1654,
    #1655,#1656,#1657,#1658,#1659,#1660,#1661,#1662,#1663,#1664,#1665,
    #1666,#1667,#1668,#1669,#1670,#1671,#1672,#1673,#1674,#1675,#1676,
    #1677,#1678,#1679));
#1636 = ORIENTED_EDGE('',*,*,#21,.T.);
#1637 = ORIENTED_EDGE('',*,*,#59,.T.);
#1638 = ORIENTED_EDGE('',*,*,#103,.T.);
#1639 = ORIENTED_EDGE('',*,*,#133,.F.);
#1640 = ORIENTED_EDGE('',*,*,#177,.T.);
#1641 = ORIENTED_EDGE('',*,*,#207,.F.);
#1642 = ORIENTED_EDGE('',*,*,#253,.T.);
#1643 = ORIENTED_EDGE('',*,*,#283,.F.);
#1644 = ORIENTED_EDGE('',*,*,#327,.T.);
#1645 = ORIENTED_EDGE('',*,*,#357,.T.);
#1646 = ORIENTED_EDGE('',*,*,#403,.T.);
#1647 = ORIENTED_EDGE('',*,*,#463,.F.);
#1648 = ORIENTED_EDGE('',*,*,#493,.F.);
#1649 = ORIENTED_EDGE('',*,*,#845,.F.);
#1650 = ORIENTED_EDGE('',*,*,#801,.T.);
#1651 = ORIENTED_EDGE('',*,*,#771,.F.);
#1652 = ORIENTED_EDGE('',*,*,#725,.T.);
#1653 = ORIENTED_EDGE('',*,*,#695,.F.);
#1654 = ORIENTED_EDGE('',*,*,#651,.T.);
#1655 = ORIENTED_EDGE('',*,*,#621,.F.);
#1656 = ORIENTED_EDGE('',*,*,#577,.F.);
#1657 = ORIENTED_EDGE('',*,*,#539,.F.);
#1658 = ORIENTED_EDGE('',*,*,#1241,.T.);
#1659 = ORIENTED_EDGE('',*,*,#1271,.T.);
#1660 = ORIENTED_EDGE('',*,*,#1315,.T.);
#1661 = ORIENTED_EDGE('',*,*,#1345,.F.);
#1662 = ORIENTED_EDGE('',*,*,#1389,.T.);
#1663 = ORIENTED_EDGE('',*,*,#1419,.F.);
#1664 = ORIENTED_EDGE('',*,*,#1465,.T.);
#1665 = ORIENTED_EDGE('',*,*,#1495,.F.);
#1666 = ORIENTED_EDGE('',*,*,#1539,.T.);
#1667 = ORIENTED_EDGE('',*,*,#1569,.T.);
#1668 = ORIENTED_EDGE('',*,*,#1615,.T.);
#1669 = ORIENTED_EDGE('',*,*,#1211,.F.);
#1670 = ORIENTED_EDGE('',*,*,#1165,.F.);
#1671 = ORIENTED_EDGE('',*,*,#1135,.F.);
#1672 = ORIENTED_EDGE('',*,*,#1091,.T.);
#1673 = ORIENTED_EDGE('',*,*,#1061,.F.);
#1674 = ORIENTED_EDGE('',*,*,#1015,.T.);
#1675 = ORIENTED_EDGE('',*,*,#985,.F.);
#1676 = ORIENTED_EDGE('',*,*,#941,.T.);
#1677 = ORIENTED_EDGE('',*,*,#911,.F.);
#1678 = ORIENTED_EDGE('',*,*,#867,.F.);
#1679 = ORIENTED_EDGE('',*,*,#433,.F.);
#1680 = PLANE('',#1681);
#1681 = AXIS2_PLACEMENT_3D('',#1682,#1683,#1684);
#1682 = CARTESIAN_POINT('',(7.382510854965E-15,-1.703656351146E-15,
    -8.781276005299E-15));
#1683 = DIRECTION('',(-0.,-0.,-1.));
#1684 = DIRECTION('',(-1.,0.,0.));
#1685 = ADVANCED_FACE('',(#1686),#1732,.T.);
#1686 = FACE_BOUND('',#1687,.T.);
#1687 = EDGE_LOOP('',(#1688,#1689,#1690,#1691,#1692,#1693,#1694,#1695,
    #1696,#1697,#1698,#1699,#1700,#1701,#1702,#1703,#1704,#1705,#1706,
    #1707,#1708,#1709,#1710,#1711,#1712,#1713,#1714,#1715,#1716,#1717,
    #1718,#1719,#1720,#1721,#1722,#1723,#1724,#1725,#1726,#1727,#1728,
    #1729,#1730,#1731));
#1688 = ORIENTED_EDGE('',*,*,#38,.F.);
#1689 = ORIENTED_EDGE('',*,*,#448,.T.);
#1690 = ORIENTED_EDGE('',*,*,#883,.T.);
#1691 = ORIENTED_EDGE('',*,*,#926,.T.);
#1692 = ORIENTED_EDGE('',*,*,#957,.F.);
#1693 = ORIENTED_EDGE('',*,*,#1000,.T.);
#1694 = ORIENTED_EDGE('',*,*,#1031,.F.);
#1695 = ORIENTED_EDGE('',*,*,#1076,.T.);
#1696 = ORIENTED_EDGE('',*,*,#1107,.F.);
#1697 = ORIENTED_EDGE('',*,*,#1150,.T.);
#1698 = ORIENTED_EDGE('',*,*,#1181,.T.);
#1699 = ORIENTED_EDGE('',*,*,#1226,.T.);
#1700 = ORIENTED_EDGE('',*,*,#1622,.F.);
#1701 = ORIENTED_EDGE('',*,*,#1585,.F.);
#1702 = ORIENTED_EDGE('',*,*,#1554,.F.);
#1703 = ORIENTED_EDGE('',*,*,#1511,.T.);
#1704 = ORIENTED_EDGE('',*,*,#1480,.F.);
#1705 = ORIENTED_EDGE('',*,*,#1435,.T.);
#1706 = ORIENTED_EDGE('',*,*,#1404,.F.);
#1707 = ORIENTED_EDGE('',*,*,#1361,.T.);
#1708 = ORIENTED_EDGE('',*,*,#1330,.F.);
#1709 = ORIENTED_EDGE('',*,*,#1287,.F.);
#1710 = ORIENTED_EDGE('',*,*,#1256,.F.);
#1711 = ORIENTED_EDGE('',*,*,#556,.T.);
#1712 = ORIENTED_EDGE('',*,*,#593,.T.);
#1713 = ORIENTED_EDGE('',*,*,#636,.T.);
#1714 = ORIENTED_EDGE('',*,*,#667,.F.);
#1715 = ORIENTED_EDGE('',*,*,#710,.T.);
#1716 = ORIENTED_EDGE('',*,*,#741,.F.);
#1717 = ORIENTED_EDGE('',*,*,#786,.T.);
#1718 = ORIENTED_EDGE('',*,*,#817,.F.);
#1719 = ORIENTED_EDGE('',*,*,#852,.T.);
#1720 = ORIENTED_EDGE('',*,*,#503,.T.);
#1721 = ORIENTED_EDGE('',*,*,#472,.T.);
#1722 = ORIENTED_EDGE('',*,*,#418,.F.);
#1723 = ORIENTED_EDGE('',*,*,#373,.F.);
#1724 = ORIENTED_EDGE('',*,*,#342,.F.);
#1725 = ORIENTED_EDGE('',*,*,#299,.T.);
#1726 = ORIENTED_EDGE('',*,*,#268,.F.);
#1727 = ORIENTED_EDGE('',*,*,#223,.T.);
#1728 = ORIENTED_EDGE('',*,*,#192,.F.);
#1729 = ORIENTED_EDGE('',*,*,#149,.T.);
#1730 = ORIENTED_EDGE('',*,*,#118,.F.);
#1731 = ORIENTED_EDGE('',*,*,#75,.F.);
#1732 = PLANE('',#1733);
#1733 = AXIS2_PLACEMENT_3D('',#1734,#1735,#1736);
#1734 = CARTESIAN_POINT('',(-3.331276658011E-15,1.693938009353E-15,120.)
  );
#1735 = DIRECTION('',(0.,0.,1.));
#1736 = DIRECTION('',(1.,0.,0.));
#1737 = ( GEOMETRIC_REPRESENTATION_CONTEXT(3) 
GLOBAL_UNCERTAINTY_ASSIGNED_CONTEXT((#1741)) 
GLOBAL_UNIT_ASSIGNED_CONTEXT((#1738,#1739,#1740)) REPRESENTATION_CONTEXT
('Context #1','3D Context with UNIT and UNCERTAINTY') );
#1738 = ( LENGTH_UNIT() NAMED_UNIT(*) SI_UNIT(.MILLI.,.METRE.) );
#1739 = ( NAMED_UNIT(*) PLANE_ANGLE_UNIT() SI_UNIT($,.RADIAN.) );
#1740 = ( NAMED_UNIT(*) SI_UNIT($,.STERADIAN.) SOLID_ANGLE_UNIT() );
#1741 = UNCERTAINTY_MEASURE_WITH_UNIT(LENGTH_MEASURE(1.E-07),#1738,
  'distance_accuracy_value','confusion accuracy');
#1742 = PRODUCT_RELATED_PRODUCT_CATEGORY('part',$,(#7));
#1743 = MECHANICAL_DESIGN_GEOMETRIC_PRESENTATION_REPRESENTATION('',(
    #1744),#1737);
#1744 = STYLED_ITEM('color',(#1745),#15);
#1745 = PRESENTATION_STYLE_ASSIGNMENT((#1746,#1752));
#1746 = SURFACE_STYLE_USAGE(.BOTH.,#1747);
#1747 = SURFACE_SIDE_STYLE('',(#1748));
#1748 = SURFACE_STYLE_FILL_AREA(#1749);
#1749 = FILL_AREA_STYLE('',(#1750));
#1750 = FILL_AREA_STYLE_COLOUR('',#1751);
#1751 = COLOUR_RGB('',0.447058818107,0.474509808674,0.501960817233);
#1752 = CURVE_STYLE('',#1753,POSITIVE_LENGTH_MEASURE(0.1),#1754);
#1753 = DRAUGHTING_PRE_DEFINED_CURVE_FONT('continuous');
#1754 = COLOUR_RGB('',9.803921802644E-02,9.803921802644E-02,
  9.803921802644E-02);
ENDSEC;
END-ISO-10303-21;
