<?xml version="1.0" encoding="UTF-8" standalone="no"?>
<!-- Created with Inkscape (http://www.inkscape.org/) -->

<svg
   width="100mm"
   height="9.10291mm"
   viewBox="0 0 100 9.1029101"
   version="1.1"
   xmlns="http://www.w3.org/2000/svg"
   xmlns:svg="http://www.w3.org/2000/svg">
   <style>
      .black {
         fill: #000000;
      }

      .red {
         fill: #ff0000;
      }
   </style>
   <path
      class="black"
      d="m 20.408966,3.07386 q -0.105541,0.80477 -0.923484,1.51717 -0.369393,0.32992 -0.620053,0.40887 0.303451,0.47493 0.303451,1.00264 0,0.30333 -0.09233,0.85754 -0.05277,0.34322 -0.686016,2.22953 H 15.435387 L 16.490796,5.46166 H 13.377338 L 12.255965,9.08961 H 9.1820838 L 10.949895,3.07378 Z" />
   <path
      class="black"
      d="M 20.567277,2.18998 H 10.342995 L 11.741413,0 h 7.506602 q 0.303451,0 0.60686,0.21108 0.316623,0.21108 0.474935,0.50132 0.237467,0.43534 0.237467,1.47758 z" />
   <path
      class="black"
      d="M 9.4195318,3.07386 8.6939378,5.48813 H 4.4591058 L 3.4696598,9.0897 H 0 L 1.675463,3.07386 Z" />
   <path
      class="black"
      d="M 10.237475,0 9.6042288,2.21636 H 1.0422172 L 2.4538277,0 Z" />
   <path
      class="black"
      d="m 99.841687,3.07386 q -0.10554,0.80477 -0.92348,1.51717 -0.3694,0.32992 -0.62006,0.40887 0.30346,0.47493 0.30346,1.00264 0,0.30333 -0.0923,0.85754 -0.0528,0.34322 -0.68602,2.22953 h -2.95518 l 1.0554,-3.62795 h -3.113452 l -1.121373,3.62795 h -3.073881 l 1.767811,-6.01583 z" />
   <path
      class="black"
      d="M 99.999997,2.18998 H 89.775722 L 91.174139,0 h 7.506598 q 0.30345,0 0.60686,0.21108 0.31662,0.21108 0.47494,0.50132 0.23746,0.43534 0.23746,1.47758 z" />
   <path
      class="black"
      d="m 88.456455,3.07386 -0.633246,2.40106 h -4.287602 l -0.343008,1.2401 h 4.248024 L 86.807377,9.0897 h -7.744069 l 1.6095,-6.01584 z" />
   <path
      class="black"
      d="M 89.313976,0 88.7335,2.21636 H 80.131911 L 81.556714,0 Z" />
   <path
      class="black"
      d="m 79.340358,3.07386 -1.6095,6.01584 H 74.41951 L 75.435342,5.43536 73.509219,3.68072 71.978875,9.10291 h -3.021111 l 1.649078,-6.02905 z" />
   <path
      class="black"
      d="M 80.171493,0 79.511862,2.20315 H 70.870694 L 71.490748,0 h 2.994725 L 76.437981,1.86014 76.912915,0 Z" />
   <path
      class="black"
      d="m 69.577826,3.07386 -1.6095,6.01584 H 64.656978 L 65.67281,5.43536 63.746687,3.68072 62.216343,9.10291 H 59.195232 L 60.84431,3.07386 Z" />
   <path
      class="black"
      d="M 70.408961,0 69.74933,2.20315 H 61.108163 L 61.728216,0 h 2.994725 L 66.675449,1.86014 67.150383,0 Z" />
   <path
      class="black"
      d="m 59.604216,3.07386 -1.66227,6.01584 -4.8285,0.0125 q -2.269131,0 -2.810028,-1.35886 -0.145098,-0.36939 -0.145098,-0.73879 0,-0.21108 0.05277,-0.39598 l 0.976254,-3.53563 h 2.928762 L 53.17943,6.34471 q -0.06598,0.22438 -0.06598,0.32992 0,0.26386 0.263853,0.3428 h 2.110819 l 1.10818,-3.94461 z" />
   <path
      class="black"
      d="M 54.947221,0.03956 54.34036,2.21636 H 51.37202 L 51.992073,0.05277 Z" />
   <path
      class="black"
      d="m 60.435351,0.03956 -0.620053,2.1768 H 56.80738 l 0.606861,-2.1768 z" />
   <path
      class="black"
      d="m 38.825849,3.07386 -0.633246,2.40106 h -4.287602 l -0.343008,1.2401 h 4.248024 L 37.176771,9.0897 h -7.744069 l 1.6095,-6.01584 z" />
   <path
      class="black"
      d="M 39.683369,0 39.102894,2.21636 H 30.501305 L 31.926108,0 Z" />
   <path
      class="black"
      d="M 29.340358,3.07386 28.707112,5.47492 H 24.41951 l -0.343008,1.2401 h 4.248024 L 27.69128,9.0897 h -7.744069 l 1.6095,-6.01584 z" />
   <path
      class="black"
      d="M 30.197879,0 29.617403,2.21636 H 21.015814 L 22.440617,0 Z" />
   <path
      class="black"
      d="M 50.369393,2.18998 H 40.145111 L 41.543529,0 h 7.506602 q 0.303451,0 0.606861,0.21108 0.316623,0.21108 0.474934,0.50132 0.237467,0.43538 0.237467,1.47758 z M 50.211082,3.0739 q -0.105541,0.80473 -0.923484,1.51713 -0.369393,0.32992 -0.620053,0.40887 0.303451,0.47493 0.303451,1.00264 0,0.30333 -0.09233,0.8575 -0.05277,0.3428 -0.686016,2.22957 h -2.955147 l 1.05541,-3.62799 H 43.179454 L 42.058081,9.08961 H 38.9842 l 1.767811,-6.01583 z" />
   <path
      class="red"
      d="m 48.86767,6.90242 c -0.0487,0.25887 -0.269005,0.9807 -0.674233,2.18807 h 1.996931 c 0,-0.69479 -0.08003,-1.18705 -0.238339,-1.47733 C 49.846488,7.41953 49.688592,7.25374 49.477489,7.11288 49.275216,6.97202 49.074272,6.90221 48.87197,6.90221 Z" />
   <path
      class="red"
      d="m 42.735818,6.90155 -0.674232,2.18806 h 1.996931 c 0,-0.69478 -0.08003,-1.18704 -0.23834,-1.47732 C 43.714636,7.41866 43.55674,7.25287 43.345637,7.11201 43.143364,6.97115 42.942421,6.90134 42.740119,6.90134 Z" />
</svg>
