<?xml version="1.0" encoding="UTF-8" standalone="no"?>
<!-- Created with Inkscape (http://www.inkscape.org/) -->

<svg
   width="11.385193mm"
   height="9.0904903mm"
   viewBox="0 0 11.385193 9.0904904"
   version="1.1"
   xmlns="http://www.w3.org/2000/svg"
   xmlns:svg="http://www.w3.org/2000/svg">
   <style>
      .black {
         fill: #000000;
      }

      .red {
         fill: #ff0000;
      }
   </style>
   <path
      class="black"
      d="M 11.385193,2.18998 H 1.160911 L 2.559329,0 h 7.506602 q 0.303451,0 0.606861,0.21108 0.316623,0.21108 0.474934,0.50132 0.237467,0.43538 0.237467,1.47758 z M 11.226882,3.0739 Q 11.121341,3.87863 10.303398,4.59103 9.934005,4.92095 9.683345,4.9999 q 0.303451,0.47493 0.303451,1.00264 0,0.30333 -0.09233,0.8575 -0.05277,0.3428 -0.686016,2.22957 H 6.253303 L 7.308713,5.46162 H 4.195254 L 3.073881,9.08961 H 0 L 1.767811,3.07378 Z" />
   <path
      class="red"
      d="M 9.88347,6.90242 C 9.83477,7.16129 9.614465,7.88312 9.209237,9.09049 h 1.996931 c 0,-0.69479 -0.08003,-1.18705 -0.238339,-1.47733 C 10.862288,7.41953 10.704392,7.25374 10.493289,7.11288 10.291016,6.97202 10.090072,6.90221 9.88777,6.90221 Z" />
   <path
      class="red"
      d="M 3.751618,6.90155 3.077386,9.08961 h 1.996931 c 0,-0.69478 -0.08003,-1.18704 -0.23834,-1.47732 C 4.730436,7.41866 4.57254,7.25287 4.361437,7.11201 4.159164,6.97115 3.958221,6.90134 3.755919,6.90134 Z" />
</svg>
